<svg xmlns="http://www.w3.org/2000/svg" xmlns:xlink="http://www.w3.org/1999/xlink" width="4000" zoomAndPan="magnify" viewBox="0 0 3000 2999.999989" height="4000" preserveAspectRatio="xMidYMid meet" version="1.0"><defs><filter x="0%" y="0%" width="100%" height="100%" id="356aa741b3"><feColorMatrix values="0 0 0 0 1 0 0 0 0 1 0 0 0 0 1 0 0 0 1 0" color-interpolation-filters="sRGB"/></filter><g/><clipPath id="9cf2516e04"><path d="M 0 0 L 3000 0 L 3000 3000 L 0 3000 Z M 0 0 " clip-rule="nonzero"/></clipPath><linearGradient x1="-51.932438" gradientTransform="matrix(15.528663, 0, 0, 15.534446, 806.441345, 1088.287659)" y1="26.5" x2="141.258684" gradientUnits="userSpaceOnUse" y2="26.5" id="9f040a23ff"><stop stop-opacity="1" stop-color="rgb(93.728638%, 0.389099%, 95.689392%)" offset="0"/><stop stop-opacity="1" stop-color="rgb(93.728638%, 0.389099%, 95.689392%)" offset="0.25"/><stop stop-opacity="1" stop-color="rgb(93.728638%, 0.389099%, 95.689392%)" offset="0.375"/><stop stop-opacity="1" stop-color="rgb(93.728638%, 0.389099%, 95.689392%)" offset="0.40625"/><stop stop-opacity="1" stop-color="rgb(93.728638%, 0.389099%, 95.689392%)" offset="0.414063"/><stop stop-opacity="1" stop-color="rgb(92.56897%, 2.232361%, 95.770264%)" offset="0.417969"/><stop stop-opacity="1" stop-color="rgb(91.410828%, 4.075623%, 95.852661%)" offset="0.421875"/><stop stop-opacity="1" stop-color="rgb(90.19928%, 5.999756%, 95.93811%)" offset="0.425781"/><stop stop-opacity="1" stop-color="rgb(88.987732%, 7.925415%, 96.02356%)" offset="0.429688"/><stop stop-opacity="1" stop-color="rgb(87.776184%, 9.851074%, 96.109009%)" offset="0.433594"/><stop stop-opacity="1" stop-color="rgb(86.566162%, 11.776733%, 96.194458%)" offset="0.4375"/><stop stop-opacity="1" stop-color="rgb(85.354614%, 13.700867%, 96.278381%)" offset="0.441406"/><stop stop-opacity="1" stop-color="rgb(84.144592%, 15.626526%, 96.363831%)" offset="0.445313"/><stop stop-opacity="1" stop-color="rgb(82.933044%, 17.552185%, 96.44928%)" offset="0.449219"/><stop stop-opacity="1" stop-color="rgb(81.721497%, 19.477844%, 96.534729%)" offset="0.453125"/><stop stop-opacity="1" stop-color="rgb(80.509949%, 21.401978%, 96.620178%)" offset="0.457031"/><stop stop-opacity="1" stop-color="rgb(79.299927%, 23.327637%, 96.705627%)" offset="0.460938"/><stop stop-opacity="1" stop-color="rgb(78.088379%, 25.25177%, 96.791077%)" offset="0.464844"/><stop stop-opacity="1" stop-color="rgb(76.878357%, 27.177429%, 96.876526%)" offset="0.46875"/><stop stop-opacity="1" stop-color="rgb(75.666809%, 29.103088%, 96.961975%)" offset="0.472656"/><stop stop-opacity="1" stop-color="rgb(74.456787%, 31.028748%, 97.047424%)" offset="0.476563"/><stop stop-opacity="1" stop-color="rgb(73.245239%, 32.952881%, 97.132874%)" offset="0.480469"/><stop stop-opacity="1" stop-color="rgb(72.033691%, 34.87854%, 97.218323%)" offset="0.484375"/><stop stop-opacity="1" stop-color="rgb(70.822144%, 36.802673%, 97.302246%)" offset="0.488281"/><stop stop-opacity="1" stop-color="rgb(69.612122%, 38.728333%, 97.387695%)" offset="0.492188"/><stop stop-opacity="1" stop-color="rgb(68.400574%, 40.653992%, 97.473145%)" offset="0.496094"/><stop stop-opacity="1" stop-color="rgb(67.190552%, 42.579651%, 97.558594%)" offset="0.5"/><stop stop-opacity="1" stop-color="rgb(65.979004%, 44.503784%, 97.644043%)" offset="0.503906"/><stop stop-opacity="1" stop-color="rgb(64.767456%, 46.429443%, 97.729492%)" offset="0.507812"/><stop stop-opacity="1" stop-color="rgb(63.555908%, 48.355103%, 97.814941%)" offset="0.511719"/><stop stop-opacity="1" stop-color="rgb(62.345886%, 50.280762%, 97.900391%)" offset="0.515625"/><stop stop-opacity="1" stop-color="rgb(61.134338%, 52.204895%, 97.98584%)" offset="0.519531"/><stop stop-opacity="1" stop-color="rgb(59.924316%, 54.130554%, 98.071289%)" offset="0.523438"/><stop stop-opacity="1" stop-color="rgb(58.712769%, 56.054688%, 98.155212%)" offset="0.527344"/><stop stop-opacity="1" stop-color="rgb(57.502747%, 57.980347%, 98.240662%)" offset="0.53125"/><stop stop-opacity="1" stop-color="rgb(56.291199%, 59.906006%, 98.326111%)" offset="0.535156"/><stop stop-opacity="1" stop-color="rgb(55.079651%, 61.831665%, 98.41156%)" offset="0.539062"/><stop stop-opacity="1" stop-color="rgb(53.868103%, 63.755798%, 98.497009%)" offset="0.542969"/><stop stop-opacity="1" stop-color="rgb(52.658081%, 65.681458%, 98.582458%)" offset="0.546875"/><stop stop-opacity="1" stop-color="rgb(51.446533%, 67.605591%, 98.667908%)" offset="0.550781"/><stop stop-opacity="1" stop-color="rgb(50.236511%, 69.53125%, 98.753357%)" offset="0.554688"/><stop stop-opacity="1" stop-color="rgb(49.024963%, 71.456909%, 98.838806%)" offset="0.558594"/><stop stop-opacity="1" stop-color="rgb(47.813416%, 73.382568%, 98.924255%)" offset="0.5625"/><stop stop-opacity="1" stop-color="rgb(46.601868%, 75.306702%, 99.009705%)" offset="0.566406"/><stop stop-opacity="1" stop-color="rgb(45.391846%, 77.232361%, 99.095154%)" offset="0.570313"/><stop stop-opacity="1" stop-color="rgb(44.180298%, 79.15802%, 99.179077%)" offset="0.574219"/><stop stop-opacity="1" stop-color="rgb(42.970276%, 81.083679%, 99.264526%)" offset="0.578125"/><stop stop-opacity="1" stop-color="rgb(41.758728%, 83.007812%, 99.349976%)" offset="0.582031"/><stop stop-opacity="1" stop-color="rgb(40.548706%, 84.933472%, 99.435425%)" offset="0.585938"/><stop stop-opacity="1" stop-color="rgb(39.337158%, 86.857605%, 99.520874%)" offset="0.589844"/><stop stop-opacity="1" stop-color="rgb(38.12561%, 88.783264%, 99.606323%)" offset="0.59375"/><stop stop-opacity="1" stop-color="rgb(36.914062%, 90.708923%, 99.691772%)" offset="0.597656"/><stop stop-opacity="1" stop-color="rgb(35.704041%, 92.634583%, 99.777222%)" offset="0.601563"/><stop stop-opacity="1" stop-color="rgb(34.492493%, 94.558716%, 99.862671%)" offset="0.605469"/><stop stop-opacity="1" stop-color="rgb(33.282471%, 96.484375%, 99.94812%)" offset="0.609375"/><stop stop-opacity="1" stop-color="rgb(32.914734%, 97.065735%, 99.97406%)" offset="0.613281"/><stop stop-opacity="1" stop-color="rgb(32.548523%, 97.648621%, 100%)" offset="0.617188"/><stop stop-opacity="1" stop-color="rgb(32.548523%, 97.648621%, 100%)" offset="0.625"/><stop stop-opacity="1" stop-color="rgb(32.548523%, 97.648621%, 100%)" offset="0.75"/><stop stop-opacity="1" stop-color="rgb(32.548523%, 97.648621%, 100%)" offset="1"/></linearGradient><clipPath id="0fb7c30dcb"><rect x="0" width="3000" y="0" height="3000"/></clipPath><clipPath id="7d53f74c8f"><rect x="0" width="3000" y="0" height="3000"/></clipPath><clipPath id="3afda1800c"><rect x="0" width="3000" y="0" height="3000"/></clipPath><mask id="4b063e5470"><g filter="url(#356aa741b3)"><g transform="matrix(1, 0, 0, 1, 0, 0.000000000000341558)"><g clip-path="url(#3afda1800c)"><g transform="matrix(1, 0, 0, 1, 0, 0.000000000000341558)"><g clip-path="url(#7d53f74c8f)"><g fill="#000000" fill-opacity="1"><g transform="translate(1245.918093, 1834.078575)"><g><path d="M 616.34375 -763.546875 C 615.539062 -767.535156 613.546875 -768.929688 610.359375 -767.734375 C 607.171875 -766.535156 598.789062 -760.351562 585.21875 -749.1875 C 574.851562 -741.207031 558.898438 -727.046875 537.359375 -706.703125 C 515.816406 -686.359375 492.078125 -663.21875 466.140625 -637.28125 C 440.210938 -611.351562 415.28125 -586.222656 391.34375 -561.890625 C 367.40625 -537.554688 347.65625 -516.8125 332.09375 -499.65625 C 316.539062 -482.5 308.765625 -472.722656 308.765625 -470.328125 C 308.765625 -467.941406 314.148438 -456.375 324.921875 -435.625 C 335.691406 -414.882812 350.253906 -387.757812 368.609375 -354.25 C 386.960938 -320.738281 408.101562 -283.632812 432.03125 -242.9375 C 455.96875 -202.25 480.703125 -160.363281 506.234375 -117.28125 C 528.578125 -80.582031 544.929688 -52.65625 555.296875 -33.5 C 565.671875 -14.351562 571.851562 -0.195312 573.84375 8.96875 C 575.84375 18.144531 575.25 27.125 572.0625 35.90625 C 566.476562 52.65625 555.304688 59.835938 538.546875 57.453125 C 532.960938 56.648438 527.378906 53.851562 521.796875 49.0625 C 516.210938 44.28125 506.640625 33.910156 493.078125 17.953125 C 484.296875 7.578125 473.722656 -4.585938 461.359375 -18.546875 C 448.992188 -32.515625 438.421875 -44.285156 429.640625 -53.859375 C 398.523438 -88.960938 372.195312 -119.675781 350.65625 -146 C 329.113281 -172.332031 310.164062 -197.46875 293.8125 -221.40625 C 277.457031 -245.34375 260.898438 -270.875 244.140625 -298 C 234.566406 -313.957031 226.390625 -327.320312 219.609375 -338.09375 C 212.828125 -348.863281 208.640625 -354.25 207.046875 -354.25 C 207.046875 -354.25 204.648438 -351.457031 199.859375 -345.875 C 195.078125 -340.289062 189.492188 -333.90625 183.109375 -326.71875 C 177.523438 -318.738281 166.351562 -304.375 149.59375 -283.625 C 132.84375 -262.882812 115.691406 -241.742188 98.140625 -220.203125 C 81.378906 -198.660156 62.625 -174.925781 41.875 -149 C 21.132812 -123.070312 5.179688 -102.128906 -5.984375 -86.171875 C -17.953125 -71.003906 -32.3125 -52.453125 -49.0625 -30.515625 C -65.820312 -8.578125 -80.582031 10.367188 -93.34375 26.328125 C -105.3125 41.484375 -116.484375 55.84375 -126.859375 69.40625 C -137.234375 82.976562 -143.613281 91.757812 -146 95.75 C -153.1875 106.113281 -161.363281 112.289062 -170.53125 114.28125 C -179.707031 116.28125 -188.285156 114.085938 -196.265625 107.703125 C -206.640625 97.335938 -211.03125 82.976562 -209.4375 64.625 C -208.632812 57.445312 -205.441406 47.671875 -199.859375 35.296875 C -194.273438 22.929688 -184.703125 4.984375 -171.140625 -18.546875 C -157.578125 -42.085938 -138.828125 -73.800781 -114.890625 -113.6875 C -78.984375 -172.726562 -47.664062 -223.789062 -20.9375 -266.875 C 5.789062 -309.96875 30.320312 -347.46875 52.65625 -379.375 C 75 -411.289062 96.144531 -440.414062 116.09375 -466.75 C 123.269531 -476.320312 129.648438 -484.695312 135.234375 -491.875 C 140.816406 -499.050781 144.007812 -503.039062 144.8125 -503.84375 C 146.40625 -505.4375 146.601562 -509.222656 145.40625 -515.203125 C 144.207031 -521.191406 142.8125 -528.175781 141.21875 -536.15625 C 135.632812 -556.101562 130.644531 -580.039062 126.25 -607.96875 C 121.863281 -635.894531 118.875 -663.21875 117.28125 -689.9375 C 115.6875 -716.664062 115.6875 -738.410156 117.28125 -755.171875 C 118.875 -776.710938 124.457031 -793.265625 134.03125 -804.828125 C 143.613281 -816.398438 154.785156 -820.988281 167.546875 -818.59375 C 184.304688 -816.207031 197.472656 -805.4375 207.046875 -786.28125 C 209.441406 -781.5 212.234375 -773.125 215.421875 -761.15625 C 218.609375 -749.1875 222 -737.015625 225.59375 -724.640625 C 229.1875 -712.273438 231.378906 -702.503906 232.171875 -695.328125 C 232.972656 -689.742188 234.769531 -681.363281 237.5625 -670.1875 C 240.351562 -659.019531 242.945312 -649.046875 245.34375 -640.265625 C 247.738281 -631.492188 249.332031 -626.710938 250.125 -625.921875 C 250.925781 -625.921875 252.519531 -627.113281 254.90625 -629.5 C 257.300781 -631.894531 260.097656 -634.691406 263.296875 -637.890625 C 268.078125 -644.265625 277.648438 -654.234375 292.015625 -667.796875 C 306.378906 -681.367188 322.335938 -696.332031 339.890625 -712.6875 C 357.441406 -729.039062 374.394531 -744.394531 390.75 -758.75 C 407.101562 -773.113281 420.066406 -783.890625 429.640625 -791.078125 C 542.140625 -877.242188 616.738281 -905.164062 653.4375 -874.84375 C 661.414062 -869.257812 667 -860.285156 670.1875 -847.921875 C 673.382812 -835.554688 672.988281 -824.1875 669 -813.8125 C 665.8125 -803.4375 661.425781 -795.457031 655.84375 -789.875 C 653.445312 -787.476562 650.453125 -784.085938 646.859375 -779.703125 C 643.265625 -775.316406 639.875 -771.128906 636.6875 -767.140625 C 625.519531 -751.179688 618.738281 -749.984375 616.34375 -763.546875 Z M 616.34375 -763.546875 "/></g></g></g></g></g></g></g></g></mask><clipPath id="447a22d2cb"><path d="M 0 0 L 3000 0 L 3000 3000 L 0 3000 Z M 0 0 " clip-rule="nonzero"/></clipPath><clipPath id="45e4d30535"><rect x="0" width="3000" y="0" height="3000"/></clipPath><clipPath id="be1b5a43ad"><rect x="0" width="3000" y="0" height="3000"/></clipPath><clipPath id="e98b8fbb41"><rect x="0" width="3000" y="0" height="3000"/></clipPath><clipPath id="a0c6572b71"><rect x="0" width="968" y="0" height="712"/></clipPath><clipPath id="735307dd99"><rect x="0" width="948" y="0" height="712"/></clipPath></defs><g transform="matrix(1, 0, 0, 1, 0, 0.000000000000341558)"><g clip-path="url(#e98b8fbb41)"><g fill="#ff00ff" fill-opacity="1"><g transform="translate(1270.602812, 1834.078575)"><g><path d="M 616.34375 -763.546875 C 615.539062 -767.535156 613.546875 -768.929688 610.359375 -767.734375 C 607.171875 -766.535156 598.789062 -760.351562 585.21875 -749.1875 C 574.851562 -741.207031 558.898438 -727.046875 537.359375 -706.703125 C 515.816406 -686.359375 492.078125 -663.21875 466.140625 -637.28125 C 440.210938 -611.351562 415.28125 -586.222656 391.34375 -561.890625 C 367.40625 -537.554688 347.65625 -516.8125 332.09375 -499.65625 C 316.539062 -482.5 308.765625 -472.722656 308.765625 -470.328125 C 308.765625 -467.941406 314.148438 -456.375 324.921875 -435.625 C 335.691406 -414.882812 350.253906 -387.757812 368.609375 -354.25 C 386.960938 -320.738281 408.101562 -283.632812 432.03125 -242.9375 C 455.96875 -202.25 480.703125 -160.363281 506.234375 -117.28125 C 528.578125 -80.582031 544.929688 -52.65625 555.296875 -33.5 C 565.671875 -14.351562 571.851562 -0.195312 573.84375 8.96875 C 575.84375 18.144531 575.25 27.125 572.0625 35.90625 C 566.476562 52.65625 555.304688 59.835938 538.546875 57.453125 C 532.960938 56.648438 527.378906 53.851562 521.796875 49.0625 C 516.210938 44.28125 506.640625 33.910156 493.078125 17.953125 C 484.296875 7.578125 473.722656 -4.585938 461.359375 -18.546875 C 448.992188 -32.515625 438.421875 -44.285156 429.640625 -53.859375 C 398.523438 -88.960938 372.195312 -119.675781 350.65625 -146 C 329.113281 -172.332031 310.164062 -197.46875 293.8125 -221.40625 C 277.457031 -245.34375 260.898438 -270.875 244.140625 -298 C 234.566406 -313.957031 226.390625 -327.320312 219.609375 -338.09375 C 212.828125 -348.863281 208.640625 -354.25 207.046875 -354.25 C 207.046875 -354.25 204.648438 -351.457031 199.859375 -345.875 C 195.078125 -340.289062 189.492188 -333.90625 183.109375 -326.71875 C 177.523438 -318.738281 166.351562 -304.375 149.59375 -283.625 C 132.84375 -262.882812 115.691406 -241.742188 98.140625 -220.203125 C 81.378906 -198.660156 62.625 -174.925781 41.875 -149 C 21.132812 -123.070312 5.179688 -102.128906 -5.984375 -86.171875 C -17.953125 -71.003906 -32.3125 -52.453125 -49.0625 -30.515625 C -65.820312 -8.578125 -80.582031 10.367188 -93.34375 26.328125 C -105.3125 41.484375 -116.484375 55.84375 -126.859375 69.40625 C -137.234375 82.976562 -143.613281 91.757812 -146 95.75 C -153.1875 106.113281 -161.363281 112.289062 -170.53125 114.28125 C -179.707031 116.28125 -188.285156 114.085938 -196.265625 107.703125 C -206.640625 97.335938 -211.03125 82.976562 -209.4375 64.625 C -208.632812 57.445312 -205.441406 47.671875 -199.859375 35.296875 C -194.273438 22.929688 -184.703125 4.984375 -171.140625 -18.546875 C -157.578125 -42.085938 -138.828125 -73.800781 -114.890625 -113.6875 C -78.984375 -172.726562 -47.664062 -223.789062 -20.9375 -266.875 C 5.789062 -309.96875 30.320312 -347.46875 52.65625 -379.375 C 75 -411.289062 96.144531 -440.414062 116.09375 -466.75 C 123.269531 -476.320312 129.648438 -484.695312 135.234375 -491.875 C 140.816406 -499.050781 144.007812 -503.039062 144.8125 -503.84375 C 146.40625 -505.4375 146.601562 -509.222656 145.40625 -515.203125 C 144.207031 -521.191406 142.8125 -528.175781 141.21875 -536.15625 C 135.632812 -556.101562 130.644531 -580.039062 126.25 -607.96875 C 121.863281 -635.894531 118.875 -663.21875 117.28125 -689.9375 C 115.6875 -716.664062 115.6875 -738.410156 117.28125 -755.171875 C 118.875 -776.710938 124.457031 -793.265625 134.03125 -804.828125 C 143.613281 -816.398438 154.785156 -820.988281 167.546875 -818.59375 C 184.304688 -816.207031 197.472656 -805.4375 207.046875 -786.28125 C 209.441406 -781.5 212.234375 -773.125 215.421875 -761.15625 C 218.609375 -749.1875 222 -737.015625 225.59375 -724.640625 C 229.1875 -712.273438 231.378906 -702.503906 232.171875 -695.328125 C 232.972656 -689.742188 234.769531 -681.363281 237.5625 -670.1875 C 240.351562 -659.019531 242.945312 -649.046875 245.34375 -640.265625 C 247.738281 -631.492188 249.332031 -626.710938 250.125 -625.921875 C 250.925781 -625.921875 252.519531 -627.113281 254.90625 -629.5 C 257.300781 -631.894531 260.097656 -634.691406 263.296875 -637.890625 C 268.078125 -644.265625 277.648438 -654.234375 292.015625 -667.796875 C 306.378906 -681.367188 322.335938 -696.332031 339.890625 -712.6875 C 357.441406 -729.039062 374.394531 -744.394531 390.75 -758.75 C 407.101562 -773.113281 420.066406 -783.890625 429.640625 -791.078125 C 542.140625 -877.242188 616.738281 -905.164062 653.4375 -874.84375 C 661.414062 -869.257812 667 -860.285156 670.1875 -847.921875 C 673.382812 -835.554688 672.988281 -824.1875 669 -813.8125 C 665.8125 -803.4375 661.425781 -795.457031 655.84375 -789.875 C 653.445312 -787.476562 650.453125 -784.085938 646.859375 -779.703125 C 643.265625 -775.316406 639.875 -771.128906 636.6875 -767.140625 C 625.519531 -751.179688 618.738281 -749.984375 616.34375 -763.546875 Z M 616.34375 -763.546875 "/></g></g></g><g fill="#00ffff" fill-opacity="1"><g transform="translate(1221.233374, 1834.078575)"><g><path d="M 616.34375 -763.546875 C 615.539062 -767.535156 613.546875 -768.929688 610.359375 -767.734375 C 607.171875 -766.535156 598.789062 -760.351562 585.21875 -749.1875 C 574.851562 -741.207031 558.898438 -727.046875 537.359375 -706.703125 C 515.816406 -686.359375 492.078125 -663.21875 466.140625 -637.28125 C 440.210938 -611.351562 415.28125 -586.222656 391.34375 -561.890625 C 367.40625 -537.554688 347.65625 -516.8125 332.09375 -499.65625 C 316.539062 -482.5 308.765625 -472.722656 308.765625 -470.328125 C 308.765625 -467.941406 314.148438 -456.375 324.921875 -435.625 C 335.691406 -414.882812 350.253906 -387.757812 368.609375 -354.25 C 386.960938 -320.738281 408.101562 -283.632812 432.03125 -242.9375 C 455.96875 -202.25 480.703125 -160.363281 506.234375 -117.28125 C 528.578125 -80.582031 544.929688 -52.65625 555.296875 -33.5 C 565.671875 -14.351562 571.851562 -0.195312 573.84375 8.96875 C 575.84375 18.144531 575.25 27.125 572.0625 35.90625 C 566.476562 52.65625 555.304688 59.835938 538.546875 57.453125 C 532.960938 56.648438 527.378906 53.851562 521.796875 49.0625 C 516.210938 44.28125 506.640625 33.910156 493.078125 17.953125 C 484.296875 7.578125 473.722656 -4.585938 461.359375 -18.546875 C 448.992188 -32.515625 438.421875 -44.285156 429.640625 -53.859375 C 398.523438 -88.960938 372.195312 -119.675781 350.65625 -146 C 329.113281 -172.332031 310.164062 -197.46875 293.8125 -221.40625 C 277.457031 -245.34375 260.898438 -270.875 244.140625 -298 C 234.566406 -313.957031 226.390625 -327.320312 219.609375 -338.09375 C 212.828125 -348.863281 208.640625 -354.25 207.046875 -354.25 C 207.046875 -354.25 204.648438 -351.457031 199.859375 -345.875 C 195.078125 -340.289062 189.492188 -333.90625 183.109375 -326.71875 C 177.523438 -318.738281 166.351562 -304.375 149.59375 -283.625 C 132.84375 -262.882812 115.691406 -241.742188 98.140625 -220.203125 C 81.378906 -198.660156 62.625 -174.925781 41.875 -149 C 21.132812 -123.070312 5.179688 -102.128906 -5.984375 -86.171875 C -17.953125 -71.003906 -32.3125 -52.453125 -49.0625 -30.515625 C -65.820312 -8.578125 -80.582031 10.367188 -93.34375 26.328125 C -105.3125 41.484375 -116.484375 55.84375 -126.859375 69.40625 C -137.234375 82.976562 -143.613281 91.757812 -146 95.75 C -153.1875 106.113281 -161.363281 112.289062 -170.53125 114.28125 C -179.707031 116.28125 -188.285156 114.085938 -196.265625 107.703125 C -206.640625 97.335938 -211.03125 82.976562 -209.4375 64.625 C -208.632812 57.445312 -205.441406 47.671875 -199.859375 35.296875 C -194.273438 22.929688 -184.703125 4.984375 -171.140625 -18.546875 C -157.578125 -42.085938 -138.828125 -73.800781 -114.890625 -113.6875 C -78.984375 -172.726562 -47.664062 -223.789062 -20.9375 -266.875 C 5.789062 -309.96875 30.320312 -347.46875 52.65625 -379.375 C 75 -411.289062 96.144531 -440.414062 116.09375 -466.75 C 123.269531 -476.320312 129.648438 -484.695312 135.234375 -491.875 C 140.816406 -499.050781 144.007812 -503.039062 144.8125 -503.84375 C 146.40625 -505.4375 146.601562 -509.222656 145.40625 -515.203125 C 144.207031 -521.191406 142.8125 -528.175781 141.21875 -536.15625 C 135.632812 -556.101562 130.644531 -580.039062 126.25 -607.96875 C 121.863281 -635.894531 118.875 -663.21875 117.28125 -689.9375 C 115.6875 -716.664062 115.6875 -738.410156 117.28125 -755.171875 C 118.875 -776.710938 124.457031 -793.265625 134.03125 -804.828125 C 143.613281 -816.398438 154.785156 -820.988281 167.546875 -818.59375 C 184.304688 -816.207031 197.472656 -805.4375 207.046875 -786.28125 C 209.441406 -781.5 212.234375 -773.125 215.421875 -761.15625 C 218.609375 -749.1875 222 -737.015625 225.59375 -724.640625 C 229.1875 -712.273438 231.378906 -702.503906 232.171875 -695.328125 C 232.972656 -689.742188 234.769531 -681.363281 237.5625 -670.1875 C 240.351562 -659.019531 242.945312 -649.046875 245.34375 -640.265625 C 247.738281 -631.492188 249.332031 -626.710938 250.125 -625.921875 C 250.925781 -625.921875 252.519531 -627.113281 254.90625 -629.5 C 257.300781 -631.894531 260.097656 -634.691406 263.296875 -637.890625 C 268.078125 -644.265625 277.648438 -654.234375 292.015625 -667.796875 C 306.378906 -681.367188 322.335938 -696.332031 339.890625 -712.6875 C 357.441406 -729.039062 374.394531 -744.394531 390.75 -758.75 C 407.101562 -773.113281 420.066406 -783.890625 429.640625 -791.078125 C 542.140625 -877.242188 616.738281 -905.164062 653.4375 -874.84375 C 661.414062 -869.257812 667 -860.285156 670.1875 -847.921875 C 673.382812 -835.554688 672.988281 -824.1875 669 -813.8125 C 665.8125 -803.4375 661.425781 -795.457031 655.84375 -789.875 C 653.445312 -787.476562 650.453125 -784.085938 646.859375 -779.703125 C 643.265625 -775.316406 639.875 -771.128906 636.6875 -767.140625 C 625.519531 -751.179688 618.738281 -749.984375 616.34375 -763.546875 Z M 616.34375 -763.546875 "/></g></g></g><g transform="matrix(1, 0, 0, 1, 0, 0.000000000000341558)"><g clip-path="url(#be1b5a43ad)"><g mask="url(#4b063e5470)"><g transform="matrix(1, 0, 0, 1, 0, 0.000000000000341558)"><g clip-path="url(#45e4d30535)"><g clip-path="url(#447a22d2cb)"><rect x="-1610.4" fill="url(#9f040a23ff)" width="6220.8" height="6220.799977" y="-1610.399994"/></g></g></g></g></g></g></g></g><g transform="matrix(1, 0, 0, 1, 316, 1044)"><g clip-path="url(#a0c6572b71)"><g fill="#ff00ff" fill-opacity="1"><g transform="translate(78.050307, 559.513107)"><g><path d="M 37.953125 27.734375 C 24.328125 24.816406 11.4375 17.394531 -0.71875 5.46875 C -12.882812 -6.445312 -21.160156 -19.945312 -25.546875 -35.03125 C -32.835938 -59.351562 -35.144531 -86.109375 -32.46875 -115.296875 C -29.789062 -144.492188 -21.882812 -178.304688 -8.75 -216.734375 C 0.488281 -243.003906 11.675781 -270.128906 24.8125 -298.109375 C 37.945312 -326.085938 52.421875 -353.085938 68.234375 -379.109375 C 84.046875 -405.140625 99.734375 -428.128906 115.296875 -448.078125 C 143.035156 -483.585938 168.09375 -506.816406 190.46875 -517.765625 C 212.84375 -528.710938 230.113281 -526.40625 242.28125 -510.84375 C 247.144531 -505 249.578125 -498.1875 249.578125 -490.40625 C 249.578125 -482.613281 248.117188 -475.429688 245.203125 -468.859375 C 242.285156 -462.296875 235.960938 -451.71875 226.234375 -437.125 C 221.367188 -430.800781 216.988281 -424.351562 213.09375 -417.78125 C 209.195312 -411.21875 206.765625 -406.722656 205.796875 -404.296875 C 203.359375 -398.453125 200.925781 -396.019531 198.5 -397 C 195.09375 -397.96875 193.875 -401.25 194.84375 -406.84375 C 195.820312 -412.4375 199.957031 -426.425781 207.25 -448.8125 L 210.90625 -459.75 L 197.03125 -442.234375 C 185.351562 -428.128906 173.3125 -410.375 160.90625 -388.96875 C 148.5 -367.5625 136.335938 -344.328125 124.421875 -319.265625 C 112.503906 -294.210938 101.679688 -268.914062 91.953125 -243.375 C 82.222656 -217.832031 74.070312 -193.628906 67.5 -170.765625 C 60.9375 -147.898438 56.925781 -127.953125 55.46875 -110.921875 C 54 -98.273438 53.875 -90.25 55.09375 -86.84375 C 56.3125 -83.4375 59.597656 -81.734375 64.953125 -81.734375 C 72.734375 -81.734375 85.867188 -86.351562 104.359375 -95.59375 C 122.847656 -104.84375 144.738281 -117.375 170.03125 -133.1875 C 195.332031 -149 221.847656 -166.632812 249.578125 -186.09375 C 268.066406 -199.226562 280.59375 -207.617188 287.15625 -211.265625 C 293.726562 -214.910156 300.175781 -216.734375 306.5 -216.734375 C 314.769531 -216.734375 321.820312 -214.421875 327.65625 -209.796875 C 333.5 -205.179688 336.421875 -199.46875 336.421875 -192.65625 C 336.421875 -189.25 335.082031 -182.921875 332.40625 -173.671875 C 329.726562 -164.429688 326.929688 -156.410156 324.015625 -149.609375 C 317.691406 -134.523438 301.03125 -115.0625 274.03125 -91.21875 C 247.03125 -67.382812 214.3125 -43.300781 175.875 -18.96875 C 134.519531 7.78125 100.460938 23.347656 73.703125 27.734375 C 64.460938 29.679688 58.257812 30.65625 55.09375 30.65625 C 51.9375 30.65625 46.222656 29.679688 37.953125 27.734375 Z M 37.953125 27.734375 "/></g></g></g><g fill="#ff00ff" fill-opacity="1"><g transform="translate(400.587042, 559.513107)"><g><path d="M 94.875 -280.953125 C 90.488281 -279.492188 81.488281 -254.925781 67.875 -207.25 C 62.03125 -187.789062 57.769531 -169.179688 55.09375 -151.421875 C 52.414062 -133.671875 51.441406 -119.320312 52.171875 -108.375 C 52.898438 -97.425781 55.457031 -91.953125 59.84375 -91.953125 C 61.300781 -91.953125 63.972656 -92.921875 67.859375 -94.859375 C 71.753906 -96.804688 75.648438 -99 79.546875 -101.4375 C 89.765625 -108.25 100.585938 -117.128906 112.015625 -128.078125 C 123.453125 -139.023438 133.789062 -150.09375 143.03125 -161.28125 C 148.382812 -168.09375 154.46875 -176.484375 161.28125 -186.453125 C 168.09375 -196.429688 174.171875 -205.675781 179.515625 -214.1875 C 184.867188 -222.695312 187.789062 -227.925781 188.28125 -229.875 C 188.28125 -232.3125 181.957031 -235.960938 169.3125 -240.828125 C 158.601562 -244.710938 147.164062 -250.0625 135 -256.875 C 122.84375 -263.6875 113.359375 -270.007812 106.546875 -275.84375 C 101.191406 -280.226562 97.300781 -281.929688 94.875 -280.953125 Z M 159.8125 -399.1875 C 157.875 -393.832031 154.957031 -391.640625 151.0625 -392.609375 C 148.625 -393.097656 145.582031 -391.148438 141.9375 -386.765625 C 138.289062 -382.390625 135.367188 -377.523438 133.171875 -372.171875 C 130.984375 -366.828125 130.625 -363.179688 132.09375 -361.234375 C 134.519531 -357.828125 140.113281 -353.082031 148.875 -347 C 157.632812 -340.914062 167.363281 -334.710938 178.0625 -328.390625 C 188.769531 -322.066406 198.257812 -317.082031 206.53125 -313.4375 C 214.800781 -309.789062 219.421875 -308.695312 220.390625 -310.15625 C 220.878906 -311.125 221.609375 -313.914062 222.578125 -318.53125 C 223.546875 -323.15625 224.519531 -328.144531 225.5 -333.5 C 227.445312 -342.75 228.296875 -353.085938 228.046875 -364.515625 C 227.804688 -375.953125 226.832031 -386.65625 225.125 -396.625 C 223.425781 -406.601562 220.875 -414.265625 217.46875 -419.609375 C 214.0625 -426.421875 210.164062 -431.40625 205.78125 -434.5625 C 201.40625 -437.726562 195.328125 -440.046875 187.546875 -441.515625 C 181.710938 -442.484375 178.304688 -442.601562 177.328125 -441.875 C 176.359375 -441.144531 175.875 -438.832031 175.875 -434.9375 C 175.875 -429.101562 173.925781 -423.023438 170.03125 -416.703125 C 168.082031 -414.265625 166.132812 -411.34375 164.1875 -407.9375 C 162.25 -404.53125 160.789062 -401.613281 159.8125 -399.1875 Z M 36.484375 -19.703125 C 21.890625 -23.109375 10.210938 -30.160156 1.453125 -40.859375 C -10.703125 -56.429688 -18.238281 -77.351562 -21.15625 -103.625 C -23.59375 -130.875 -20.796875 -161.160156 -12.765625 -194.484375 C -4.742188 -227.804688 8.992188 -266.847656 28.453125 -311.609375 L 44.515625 -348.828125 L 40.140625 -363.421875 C 31.378906 -393.585938 35.269531 -416.453125 51.8125 -432.015625 C 55.707031 -435.910156 63.003906 -441.265625 73.703125 -448.078125 C 84.410156 -454.890625 95.601562 -461.457031 107.28125 -467.78125 C 118.957031 -474.101562 127.957031 -478.484375 134.28125 -480.921875 C 146.4375 -485.296875 161.148438 -487.484375 178.421875 -487.484375 C 195.691406 -487.484375 209.4375 -485.296875 219.65625 -480.921875 C 239.113281 -472.160156 254.441406 -456.347656 265.640625 -433.484375 C 280.234375 -405.265625 284 -368.285156 276.9375 -322.546875 C 269.882812 -276.816406 252.738281 -228.65625 225.5 -178.0625 C 211.382812 -150.820312 194.597656 -125.28125 175.140625 -101.4375 C 155.679688 -77.59375 136.46875 -58.617188 117.5 -44.515625 C 101.4375 -32.347656 86.957031 -24.316406 74.0625 -20.421875 C 61.175781 -16.535156 48.648438 -16.296875 36.484375 -19.703125 Z M 36.484375 -19.703125 "/></g></g></g><g fill="#ff00ff" fill-opacity="1"><g transform="translate(664.016367, 559.513107)"><g><path d="M 5.84375 -48.171875 C -5.351562 -53.035156 -13.019531 -61.546875 -17.15625 -73.703125 C -21.289062 -85.867188 -21.65625 -103.992188 -18.25 -128.078125 C -14.84375 -152.160156 -7.785156 -184.144531 2.921875 -224.03125 C 6.328125 -236.195312 10.460938 -250.550781 15.328125 -267.09375 C 20.191406 -283.632812 24.929688 -299.203125 29.546875 -313.796875 C 34.171875 -328.390625 37.457031 -338.363281 39.40625 -343.71875 C 55.945312 -385.070312 71.269531 -412.4375 85.375 -425.8125 C 99.488281 -439.195312 113.359375 -439.804688 126.984375 -427.640625 C 131.847656 -424.234375 134.765625 -421.3125 135.734375 -418.875 C 136.710938 -416.445312 137.441406 -412.316406 137.921875 -406.484375 C 137.921875 -403.078125 138.285156 -398.085938 139.015625 -391.515625 C 139.742188 -384.953125 140.351562 -378.992188 140.84375 -373.640625 C 141.8125 -367.804688 142.539062 -359.78125 143.03125 -349.5625 C 143.519531 -339.34375 143.765625 -329.851562 143.765625 -321.09375 C 144.734375 -285.09375 145.828125 -255.414062 147.046875 -232.0625 C 148.265625 -208.707031 149.96875 -189.367188 152.15625 -174.046875 C 154.34375 -158.722656 157.140625 -144.976562 160.546875 -132.8125 C 162.492188 -126.488281 164.316406 -120.769531 166.015625 -115.65625 C 167.722656 -110.550781 168.820312 -107.757812 169.3125 -107.28125 C 170.28125 -106.300781 172.707031 -108.242188 176.59375 -113.109375 C 180.488281 -117.972656 184.382812 -124.300781 188.28125 -132.09375 C 193.632812 -142.789062 198.742188 -157.382812 203.609375 -175.875 C 208.472656 -194.363281 212.972656 -214.914062 217.109375 -237.53125 C 221.242188 -260.15625 224.644531 -283.382812 227.3125 -307.21875 C 229.988281 -331.0625 231.570312 -353.6875 232.0625 -375.09375 C 233.039062 -400.882812 234.378906 -419.375 236.078125 -430.5625 C 237.785156 -441.75 240.582031 -449.535156 244.46875 -453.921875 C 251.28125 -460.242188 258.578125 -461.941406 266.359375 -459.015625 C 274.148438 -456.097656 279.988281 -449.53125 283.875 -439.3125 C 289.71875 -424.238281 287.53125 -387.023438 277.3125 -327.671875 C 274.394531 -309.660156 271.71875 -294.207031 269.28125 -281.3125 C 266.851562 -268.425781 264.300781 -255.050781 261.625 -241.1875 C 258.945312 -227.320312 255.421875 -209.6875 251.046875 -188.28125 C 241.796875 -141.570312 229.992188 -107.269531 215.640625 -85.375 C 201.296875 -63.488281 184.878906 -54.734375 166.390625 -59.109375 C 160.066406 -60.566406 153.007812 -65.066406 145.21875 -72.609375 C 137.4375 -80.148438 131.359375 -88.539062 126.984375 -97.78125 C 125.035156 -102.65625 123.207031 -107.765625 121.5 -113.109375 C 119.800781 -118.460938 117.859375 -126.003906 115.671875 -135.734375 C 113.484375 -145.460938 110.6875 -159.328125 107.28125 -177.328125 C 103.875 -194.359375 100.953125 -208.832031 98.515625 -220.75 C 96.085938 -232.675781 94.628906 -238.148438 94.140625 -237.171875 C 93.648438 -235.710938 92.066406 -229.390625 89.390625 -218.203125 C 86.710938 -207.015625 83.789062 -194.726562 80.625 -181.34375 C 77.46875 -167.96875 74.921875 -156.65625 72.984375 -147.40625 C 70.546875 -135.726562 67.5 -123.566406 63.84375 -110.921875 C 60.195312 -98.273438 56.671875 -87.328125 53.265625 -78.078125 C 49.867188 -68.835938 46.953125 -62.757812 44.515625 -59.84375 C 41.597656 -55.945312 37.460938 -52.414062 32.109375 -49.25 C 26.753906 -46.09375 22.132812 -44.515625 18.25 -44.515625 C 17.757812 -44.515625 16.175781 -45 13.5 -45.96875 C 10.820312 -46.945312 8.269531 -47.679688 5.84375 -48.171875 Z M 5.84375 -48.171875 "/></g></g></g><g fill="#00ffff" fill-opacity="1"><g transform="translate(47.946004, 559.513107)"><g><path d="M 37.953125 27.734375 C 24.328125 24.816406 11.4375 17.394531 -0.71875 5.46875 C -12.882812 -6.445312 -21.160156 -19.945312 -25.546875 -35.03125 C -32.835938 -59.351562 -35.144531 -86.109375 -32.46875 -115.296875 C -29.789062 -144.492188 -21.882812 -178.304688 -8.75 -216.734375 C 0.488281 -243.003906 11.675781 -270.128906 24.8125 -298.109375 C 37.945312 -326.085938 52.421875 -353.085938 68.234375 -379.109375 C 84.046875 -405.140625 99.734375 -428.128906 115.296875 -448.078125 C 143.035156 -483.585938 168.09375 -506.816406 190.46875 -517.765625 C 212.84375 -528.710938 230.113281 -526.40625 242.28125 -510.84375 C 247.144531 -505 249.578125 -498.1875 249.578125 -490.40625 C 249.578125 -482.613281 248.117188 -475.429688 245.203125 -468.859375 C 242.285156 -462.296875 235.960938 -451.71875 226.234375 -437.125 C 221.367188 -430.800781 216.988281 -424.351562 213.09375 -417.78125 C 209.195312 -411.21875 206.765625 -406.722656 205.796875 -404.296875 C 203.359375 -398.453125 200.925781 -396.019531 198.5 -397 C 195.09375 -397.96875 193.875 -401.25 194.84375 -406.84375 C 195.820312 -412.4375 199.957031 -426.425781 207.25 -448.8125 L 210.90625 -459.75 L 197.03125 -442.234375 C 185.351562 -428.128906 173.3125 -410.375 160.90625 -388.96875 C 148.5 -367.5625 136.335938 -344.328125 124.421875 -319.265625 C 112.503906 -294.210938 101.679688 -268.914062 91.953125 -243.375 C 82.222656 -217.832031 74.070312 -193.628906 67.5 -170.765625 C 60.9375 -147.898438 56.925781 -127.953125 55.46875 -110.921875 C 54 -98.273438 53.875 -90.25 55.09375 -86.84375 C 56.3125 -83.4375 59.597656 -81.734375 64.953125 -81.734375 C 72.734375 -81.734375 85.867188 -86.351562 104.359375 -95.59375 C 122.847656 -104.84375 144.738281 -117.375 170.03125 -133.1875 C 195.332031 -149 221.847656 -166.632812 249.578125 -186.09375 C 268.066406 -199.226562 280.59375 -207.617188 287.15625 -211.265625 C 293.726562 -214.910156 300.175781 -216.734375 306.5 -216.734375 C 314.769531 -216.734375 321.820312 -214.421875 327.65625 -209.796875 C 333.5 -205.179688 336.421875 -199.46875 336.421875 -192.65625 C 336.421875 -189.25 335.082031 -182.921875 332.40625 -173.671875 C 329.726562 -164.429688 326.929688 -156.410156 324.015625 -149.609375 C 317.691406 -134.523438 301.03125 -115.0625 274.03125 -91.21875 C 247.03125 -67.382812 214.3125 -43.300781 175.875 -18.96875 C 134.519531 7.78125 100.460938 23.347656 73.703125 27.734375 C 64.460938 29.679688 58.257812 30.65625 55.09375 30.65625 C 51.9375 30.65625 46.222656 29.679688 37.953125 27.734375 Z M 37.953125 27.734375 "/></g></g></g><g fill="#00ffff" fill-opacity="1"><g transform="translate(370.482739, 559.513107)"><g><path d="M 94.875 -280.953125 C 90.488281 -279.492188 81.488281 -254.925781 67.875 -207.25 C 62.03125 -187.789062 57.769531 -169.179688 55.09375 -151.421875 C 52.414062 -133.671875 51.441406 -119.320312 52.171875 -108.375 C 52.898438 -97.425781 55.457031 -91.953125 59.84375 -91.953125 C 61.300781 -91.953125 63.972656 -92.921875 67.859375 -94.859375 C 71.753906 -96.804688 75.648438 -99 79.546875 -101.4375 C 89.765625 -108.25 100.585938 -117.128906 112.015625 -128.078125 C 123.453125 -139.023438 133.789062 -150.09375 143.03125 -161.28125 C 148.382812 -168.09375 154.46875 -176.484375 161.28125 -186.453125 C 168.09375 -196.429688 174.171875 -205.675781 179.515625 -214.1875 C 184.867188 -222.695312 187.789062 -227.925781 188.28125 -229.875 C 188.28125 -232.3125 181.957031 -235.960938 169.3125 -240.828125 C 158.601562 -244.710938 147.164062 -250.0625 135 -256.875 C 122.84375 -263.6875 113.359375 -270.007812 106.546875 -275.84375 C 101.191406 -280.226562 97.300781 -281.929688 94.875 -280.953125 Z M 159.8125 -399.1875 C 157.875 -393.832031 154.957031 -391.640625 151.0625 -392.609375 C 148.625 -393.097656 145.582031 -391.148438 141.9375 -386.765625 C 138.289062 -382.390625 135.367188 -377.523438 133.171875 -372.171875 C 130.984375 -366.828125 130.625 -363.179688 132.09375 -361.234375 C 134.519531 -357.828125 140.113281 -353.082031 148.875 -347 C 157.632812 -340.914062 167.363281 -334.710938 178.0625 -328.390625 C 188.769531 -322.066406 198.257812 -317.082031 206.53125 -313.4375 C 214.800781 -309.789062 219.421875 -308.695312 220.390625 -310.15625 C 220.878906 -311.125 221.609375 -313.914062 222.578125 -318.53125 C 223.546875 -323.15625 224.519531 -328.144531 225.5 -333.5 C 227.445312 -342.75 228.296875 -353.085938 228.046875 -364.515625 C 227.804688 -375.953125 226.832031 -386.65625 225.125 -396.625 C 223.425781 -406.601562 220.875 -414.265625 217.46875 -419.609375 C 214.0625 -426.421875 210.164062 -431.40625 205.78125 -434.5625 C 201.40625 -437.726562 195.328125 -440.046875 187.546875 -441.515625 C 181.710938 -442.484375 178.304688 -442.601562 177.328125 -441.875 C 176.359375 -441.144531 175.875 -438.832031 175.875 -434.9375 C 175.875 -429.101562 173.925781 -423.023438 170.03125 -416.703125 C 168.082031 -414.265625 166.132812 -411.34375 164.1875 -407.9375 C 162.25 -404.53125 160.789062 -401.613281 159.8125 -399.1875 Z M 36.484375 -19.703125 C 21.890625 -23.109375 10.210938 -30.160156 1.453125 -40.859375 C -10.703125 -56.429688 -18.238281 -77.351562 -21.15625 -103.625 C -23.59375 -130.875 -20.796875 -161.160156 -12.765625 -194.484375 C -4.742188 -227.804688 8.992188 -266.847656 28.453125 -311.609375 L 44.515625 -348.828125 L 40.140625 -363.421875 C 31.378906 -393.585938 35.269531 -416.453125 51.8125 -432.015625 C 55.707031 -435.910156 63.003906 -441.265625 73.703125 -448.078125 C 84.410156 -454.890625 95.601562 -461.457031 107.28125 -467.78125 C 118.957031 -474.101562 127.957031 -478.484375 134.28125 -480.921875 C 146.4375 -485.296875 161.148438 -487.484375 178.421875 -487.484375 C 195.691406 -487.484375 209.4375 -485.296875 219.65625 -480.921875 C 239.113281 -472.160156 254.441406 -456.347656 265.640625 -433.484375 C 280.234375 -405.265625 284 -368.285156 276.9375 -322.546875 C 269.882812 -276.816406 252.738281 -228.65625 225.5 -178.0625 C 211.382812 -150.820312 194.597656 -125.28125 175.140625 -101.4375 C 155.679688 -77.59375 136.46875 -58.617188 117.5 -44.515625 C 101.4375 -32.347656 86.957031 -24.316406 74.0625 -20.421875 C 61.175781 -16.535156 48.648438 -16.296875 36.484375 -19.703125 Z M 36.484375 -19.703125 "/></g></g></g><g fill="#00ffff" fill-opacity="1"><g transform="translate(633.912064, 559.513107)"><g><path d="M 5.84375 -48.171875 C -5.351562 -53.035156 -13.019531 -61.546875 -17.15625 -73.703125 C -21.289062 -85.867188 -21.65625 -103.992188 -18.25 -128.078125 C -14.84375 -152.160156 -7.785156 -184.144531 2.921875 -224.03125 C 6.328125 -236.195312 10.460938 -250.550781 15.328125 -267.09375 C 20.191406 -283.632812 24.929688 -299.203125 29.546875 -313.796875 C 34.171875 -328.390625 37.457031 -338.363281 39.40625 -343.71875 C 55.945312 -385.070312 71.269531 -412.4375 85.375 -425.8125 C 99.488281 -439.195312 113.359375 -439.804688 126.984375 -427.640625 C 131.847656 -424.234375 134.765625 -421.3125 135.734375 -418.875 C 136.710938 -416.445312 137.441406 -412.316406 137.921875 -406.484375 C 137.921875 -403.078125 138.285156 -398.085938 139.015625 -391.515625 C 139.742188 -384.953125 140.351562 -378.992188 140.84375 -373.640625 C 141.8125 -367.804688 142.539062 -359.78125 143.03125 -349.5625 C 143.519531 -339.34375 143.765625 -329.851562 143.765625 -321.09375 C 144.734375 -285.09375 145.828125 -255.414062 147.046875 -232.0625 C 148.265625 -208.707031 149.96875 -189.367188 152.15625 -174.046875 C 154.34375 -158.722656 157.140625 -144.976562 160.546875 -132.8125 C 162.492188 -126.488281 164.316406 -120.769531 166.015625 -115.65625 C 167.722656 -110.550781 168.820312 -107.757812 169.3125 -107.28125 C 170.28125 -106.300781 172.707031 -108.242188 176.59375 -113.109375 C 180.488281 -117.972656 184.382812 -124.300781 188.28125 -132.09375 C 193.632812 -142.789062 198.742188 -157.382812 203.609375 -175.875 C 208.472656 -194.363281 212.972656 -214.914062 217.109375 -237.53125 C 221.242188 -260.15625 224.644531 -283.382812 227.3125 -307.21875 C 229.988281 -331.0625 231.570312 -353.6875 232.0625 -375.09375 C 233.039062 -400.882812 234.378906 -419.375 236.078125 -430.5625 C 237.785156 -441.75 240.582031 -449.535156 244.46875 -453.921875 C 251.28125 -460.242188 258.578125 -461.941406 266.359375 -459.015625 C 274.148438 -456.097656 279.988281 -449.53125 283.875 -439.3125 C 289.71875 -424.238281 287.53125 -387.023438 277.3125 -327.671875 C 274.394531 -309.660156 271.71875 -294.207031 269.28125 -281.3125 C 266.851562 -268.425781 264.300781 -255.050781 261.625 -241.1875 C 258.945312 -227.320312 255.421875 -209.6875 251.046875 -188.28125 C 241.796875 -141.570312 229.992188 -107.269531 215.640625 -85.375 C 201.296875 -63.488281 184.878906 -54.734375 166.390625 -59.109375 C 160.066406 -60.566406 153.007812 -65.066406 145.21875 -72.609375 C 137.4375 -80.148438 131.359375 -88.539062 126.984375 -97.78125 C 125.035156 -102.65625 123.207031 -107.765625 121.5 -113.109375 C 119.800781 -118.460938 117.859375 -126.003906 115.671875 -135.734375 C 113.484375 -145.460938 110.6875 -159.328125 107.28125 -177.328125 C 103.875 -194.359375 100.953125 -208.832031 98.515625 -220.75 C 96.085938 -232.675781 94.628906 -238.148438 94.140625 -237.171875 C 93.648438 -235.710938 92.066406 -229.390625 89.390625 -218.203125 C 86.710938 -207.015625 83.789062 -194.726562 80.625 -181.34375 C 77.46875 -167.96875 74.921875 -156.65625 72.984375 -147.40625 C 70.546875 -135.726562 67.5 -123.566406 63.84375 -110.921875 C 60.195312 -98.273438 56.671875 -87.328125 53.265625 -78.078125 C 49.867188 -68.835938 46.953125 -62.757812 44.515625 -59.84375 C 41.597656 -55.945312 37.460938 -52.414062 32.109375 -49.25 C 26.753906 -46.09375 22.132812 -44.515625 18.25 -44.515625 C 17.757812 -44.515625 16.175781 -45 13.5 -45.96875 C 10.820312 -46.945312 8.269531 -47.679688 5.84375 -48.171875 Z M 5.84375 -48.171875 "/></g></g></g><g fill="#ffffff" fill-opacity="1"><g transform="translate(62.998155, 559.513107)"><g><path d="M 37.953125 27.734375 C 24.328125 24.816406 11.4375 17.394531 -0.71875 5.46875 C -12.882812 -6.445312 -21.160156 -19.945312 -25.546875 -35.03125 C -32.835938 -59.351562 -35.144531 -86.109375 -32.46875 -115.296875 C -29.789062 -144.492188 -21.882812 -178.304688 -8.75 -216.734375 C 0.488281 -243.003906 11.675781 -270.128906 24.8125 -298.109375 C 37.945312 -326.085938 52.421875 -353.085938 68.234375 -379.109375 C 84.046875 -405.140625 99.734375 -428.128906 115.296875 -448.078125 C 143.035156 -483.585938 168.09375 -506.816406 190.46875 -517.765625 C 212.84375 -528.710938 230.113281 -526.40625 242.28125 -510.84375 C 247.144531 -505 249.578125 -498.1875 249.578125 -490.40625 C 249.578125 -482.613281 248.117188 -475.429688 245.203125 -468.859375 C 242.285156 -462.296875 235.960938 -451.71875 226.234375 -437.125 C 221.367188 -430.800781 216.988281 -424.351562 213.09375 -417.78125 C 209.195312 -411.21875 206.765625 -406.722656 205.796875 -404.296875 C 203.359375 -398.453125 200.925781 -396.019531 198.5 -397 C 195.09375 -397.96875 193.875 -401.25 194.84375 -406.84375 C 195.820312 -412.4375 199.957031 -426.425781 207.25 -448.8125 L 210.90625 -459.75 L 197.03125 -442.234375 C 185.351562 -428.128906 173.3125 -410.375 160.90625 -388.96875 C 148.5 -367.5625 136.335938 -344.328125 124.421875 -319.265625 C 112.503906 -294.210938 101.679688 -268.914062 91.953125 -243.375 C 82.222656 -217.832031 74.070312 -193.628906 67.5 -170.765625 C 60.9375 -147.898438 56.925781 -127.953125 55.46875 -110.921875 C 54 -98.273438 53.875 -90.25 55.09375 -86.84375 C 56.3125 -83.4375 59.597656 -81.734375 64.953125 -81.734375 C 72.734375 -81.734375 85.867188 -86.351562 104.359375 -95.59375 C 122.847656 -104.84375 144.738281 -117.375 170.03125 -133.1875 C 195.332031 -149 221.847656 -166.632812 249.578125 -186.09375 C 268.066406 -199.226562 280.59375 -207.617188 287.15625 -211.265625 C 293.726562 -214.910156 300.175781 -216.734375 306.5 -216.734375 C 314.769531 -216.734375 321.820312 -214.421875 327.65625 -209.796875 C 333.5 -205.179688 336.421875 -199.46875 336.421875 -192.65625 C 336.421875 -189.25 335.082031 -182.921875 332.40625 -173.671875 C 329.726562 -164.429688 326.929688 -156.410156 324.015625 -149.609375 C 317.691406 -134.523438 301.03125 -115.0625 274.03125 -91.21875 C 247.03125 -67.382812 214.3125 -43.300781 175.875 -18.96875 C 134.519531 7.78125 100.460938 23.347656 73.703125 27.734375 C 64.460938 29.679688 58.257812 30.65625 55.09375 30.65625 C 51.9375 30.65625 46.222656 29.679688 37.953125 27.734375 Z M 37.953125 27.734375 "/></g></g></g><g fill="#ffffff" fill-opacity="1"><g transform="translate(385.53489, 559.513107)"><g><path d="M 94.875 -280.953125 C 90.488281 -279.492188 81.488281 -254.925781 67.875 -207.25 C 62.03125 -187.789062 57.769531 -169.179688 55.09375 -151.421875 C 52.414062 -133.671875 51.441406 -119.320312 52.171875 -108.375 C 52.898438 -97.425781 55.457031 -91.953125 59.84375 -91.953125 C 61.300781 -91.953125 63.972656 -92.921875 67.859375 -94.859375 C 71.753906 -96.804688 75.648438 -99 79.546875 -101.4375 C 89.765625 -108.25 100.585938 -117.128906 112.015625 -128.078125 C 123.453125 -139.023438 133.789062 -150.09375 143.03125 -161.28125 C 148.382812 -168.09375 154.46875 -176.484375 161.28125 -186.453125 C 168.09375 -196.429688 174.171875 -205.675781 179.515625 -214.1875 C 184.867188 -222.695312 187.789062 -227.925781 188.28125 -229.875 C 188.28125 -232.3125 181.957031 -235.960938 169.3125 -240.828125 C 158.601562 -244.710938 147.164062 -250.0625 135 -256.875 C 122.84375 -263.6875 113.359375 -270.007812 106.546875 -275.84375 C 101.191406 -280.226562 97.300781 -281.929688 94.875 -280.953125 Z M 159.8125 -399.1875 C 157.875 -393.832031 154.957031 -391.640625 151.0625 -392.609375 C 148.625 -393.097656 145.582031 -391.148438 141.9375 -386.765625 C 138.289062 -382.390625 135.367188 -377.523438 133.171875 -372.171875 C 130.984375 -366.828125 130.625 -363.179688 132.09375 -361.234375 C 134.519531 -357.828125 140.113281 -353.082031 148.875 -347 C 157.632812 -340.914062 167.363281 -334.710938 178.0625 -328.390625 C 188.769531 -322.066406 198.257812 -317.082031 206.53125 -313.4375 C 214.800781 -309.789062 219.421875 -308.695312 220.390625 -310.15625 C 220.878906 -311.125 221.609375 -313.914062 222.578125 -318.53125 C 223.546875 -323.15625 224.519531 -328.144531 225.5 -333.5 C 227.445312 -342.75 228.296875 -353.085938 228.046875 -364.515625 C 227.804688 -375.953125 226.832031 -386.65625 225.125 -396.625 C 223.425781 -406.601562 220.875 -414.265625 217.46875 -419.609375 C 214.0625 -426.421875 210.164062 -431.40625 205.78125 -434.5625 C 201.40625 -437.726562 195.328125 -440.046875 187.546875 -441.515625 C 181.710938 -442.484375 178.304688 -442.601562 177.328125 -441.875 C 176.359375 -441.144531 175.875 -438.832031 175.875 -434.9375 C 175.875 -429.101562 173.925781 -423.023438 170.03125 -416.703125 C 168.082031 -414.265625 166.132812 -411.34375 164.1875 -407.9375 C 162.25 -404.53125 160.789062 -401.613281 159.8125 -399.1875 Z M 36.484375 -19.703125 C 21.890625 -23.109375 10.210938 -30.160156 1.453125 -40.859375 C -10.703125 -56.429688 -18.238281 -77.351562 -21.15625 -103.625 C -23.59375 -130.875 -20.796875 -161.160156 -12.765625 -194.484375 C -4.742188 -227.804688 8.992188 -266.847656 28.453125 -311.609375 L 44.515625 -348.828125 L 40.140625 -363.421875 C 31.378906 -393.585938 35.269531 -416.453125 51.8125 -432.015625 C 55.707031 -435.910156 63.003906 -441.265625 73.703125 -448.078125 C 84.410156 -454.890625 95.601562 -461.457031 107.28125 -467.78125 C 118.957031 -474.101562 127.957031 -478.484375 134.28125 -480.921875 C 146.4375 -485.296875 161.148438 -487.484375 178.421875 -487.484375 C 195.691406 -487.484375 209.4375 -485.296875 219.65625 -480.921875 C 239.113281 -472.160156 254.441406 -456.347656 265.640625 -433.484375 C 280.234375 -405.265625 284 -368.285156 276.9375 -322.546875 C 269.882812 -276.816406 252.738281 -228.65625 225.5 -178.0625 C 211.382812 -150.820312 194.597656 -125.28125 175.140625 -101.4375 C 155.679688 -77.59375 136.46875 -58.617188 117.5 -44.515625 C 101.4375 -32.347656 86.957031 -24.316406 74.0625 -20.421875 C 61.175781 -16.535156 48.648438 -16.296875 36.484375 -19.703125 Z M 36.484375 -19.703125 "/></g></g></g><g fill="#ffffff" fill-opacity="1"><g transform="translate(648.964216, 559.513107)"><g><path d="M 5.84375 -48.171875 C -5.351562 -53.035156 -13.019531 -61.546875 -17.15625 -73.703125 C -21.289062 -85.867188 -21.65625 -103.992188 -18.25 -128.078125 C -14.84375 -152.160156 -7.785156 -184.144531 2.921875 -224.03125 C 6.328125 -236.195312 10.460938 -250.550781 15.328125 -267.09375 C 20.191406 -283.632812 24.929688 -299.203125 29.546875 -313.796875 C 34.171875 -328.390625 37.457031 -338.363281 39.40625 -343.71875 C 55.945312 -385.070312 71.269531 -412.4375 85.375 -425.8125 C 99.488281 -439.195312 113.359375 -439.804688 126.984375 -427.640625 C 131.847656 -424.234375 134.765625 -421.3125 135.734375 -418.875 C 136.710938 -416.445312 137.441406 -412.316406 137.921875 -406.484375 C 137.921875 -403.078125 138.285156 -398.085938 139.015625 -391.515625 C 139.742188 -384.953125 140.351562 -378.992188 140.84375 -373.640625 C 141.8125 -367.804688 142.539062 -359.78125 143.03125 -349.5625 C 143.519531 -339.34375 143.765625 -329.851562 143.765625 -321.09375 C 144.734375 -285.09375 145.828125 -255.414062 147.046875 -232.0625 C 148.265625 -208.707031 149.96875 -189.367188 152.15625 -174.046875 C 154.34375 -158.722656 157.140625 -144.976562 160.546875 -132.8125 C 162.492188 -126.488281 164.316406 -120.769531 166.015625 -115.65625 C 167.722656 -110.550781 168.820312 -107.757812 169.3125 -107.28125 C 170.28125 -106.300781 172.707031 -108.242188 176.59375 -113.109375 C 180.488281 -117.972656 184.382812 -124.300781 188.28125 -132.09375 C 193.632812 -142.789062 198.742188 -157.382812 203.609375 -175.875 C 208.472656 -194.363281 212.972656 -214.914062 217.109375 -237.53125 C 221.242188 -260.15625 224.644531 -283.382812 227.3125 -307.21875 C 229.988281 -331.0625 231.570312 -353.6875 232.0625 -375.09375 C 233.039062 -400.882812 234.378906 -419.375 236.078125 -430.5625 C 237.785156 -441.75 240.582031 -449.535156 244.46875 -453.921875 C 251.28125 -460.242188 258.578125 -461.941406 266.359375 -459.015625 C 274.148438 -456.097656 279.988281 -449.53125 283.875 -439.3125 C 289.71875 -424.238281 287.53125 -387.023438 277.3125 -327.671875 C 274.394531 -309.660156 271.71875 -294.207031 269.28125 -281.3125 C 266.851562 -268.425781 264.300781 -255.050781 261.625 -241.1875 C 258.945312 -227.320312 255.421875 -209.6875 251.046875 -188.28125 C 241.796875 -141.570312 229.992188 -107.269531 215.640625 -85.375 C 201.296875 -63.488281 184.878906 -54.734375 166.390625 -59.109375 C 160.066406 -60.566406 153.007812 -65.066406 145.21875 -72.609375 C 137.4375 -80.148438 131.359375 -88.539062 126.984375 -97.78125 C 125.035156 -102.65625 123.207031 -107.765625 121.5 -113.109375 C 119.800781 -118.460938 117.859375 -126.003906 115.671875 -135.734375 C 113.484375 -145.460938 110.6875 -159.328125 107.28125 -177.328125 C 103.875 -194.359375 100.953125 -208.832031 98.515625 -220.75 C 96.085938 -232.675781 94.628906 -238.148438 94.140625 -237.171875 C 93.648438 -235.710938 92.066406 -229.390625 89.390625 -218.203125 C 86.710938 -207.015625 83.789062 -194.726562 80.625 -181.34375 C 77.46875 -167.96875 74.921875 -156.65625 72.984375 -147.40625 C 70.546875 -135.726562 67.5 -123.566406 63.84375 -110.921875 C 60.195312 -98.273438 56.671875 -87.328125 53.265625 -78.078125 C 49.867188 -68.835938 46.953125 -62.757812 44.515625 -59.84375 C 41.597656 -55.945312 37.460938 -52.414062 32.109375 -49.25 C 26.753906 -46.09375 22.132812 -44.515625 18.25 -44.515625 C 17.757812 -44.515625 16.175781 -45 13.5 -45.96875 C 10.820312 -46.945312 8.269531 -47.679688 5.84375 -48.171875 Z M 5.84375 -48.171875 "/></g></g></g></g></g><g transform="matrix(1, 0, 0, 1, 1680, 1044)"><g clip-path="url(#735307dd99)"><g fill="#ff00ff" fill-opacity="1"><g transform="translate(134.156533, 559.513107)"><g><path d="M 228.421875 -415.96875 C 218.691406 -413.050781 210.175781 -410.253906 202.875 -407.578125 C 195.570312 -404.898438 191.4375 -403.070312 190.46875 -402.09375 C 189.5 -401.125 186.703125 -395.046875 182.078125 -383.859375 C 177.453125 -372.671875 171.851562 -359.046875 165.28125 -342.984375 C 158.71875 -326.929688 152.273438 -310.632812 145.953125 -294.09375 C 139.628906 -277.550781 134.273438 -263.441406 129.890625 -251.765625 C 123.566406 -234.742188 117.609375 -217.960938 112.015625 -201.421875 C 106.421875 -184.878906 102.164062 -171.007812 99.25 -159.8125 C 96.332031 -148.625 95.113281 -142.546875 95.59375 -141.578125 C 96.082031 -141.085938 99.242188 -141.691406 105.078125 -143.390625 C 110.921875 -145.097656 117.734375 -147.171875 125.515625 -149.609375 C 147.898438 -156.898438 168.695312 -162.734375 187.90625 -167.109375 C 207.125 -171.492188 219.410156 -173.195312 224.765625 -172.21875 C 234.984375 -170.28125 243.132812 -165.414062 249.21875 -157.625 C 255.300781 -149.84375 257.367188 -141.332031 255.421875 -132.09375 C 253.960938 -124.789062 248.851562 -118.582031 240.09375 -113.46875 C 231.332031 -108.363281 214.0625 -101.921875 188.28125 -94.140625 C 164.925781 -86.835938 141.9375 -79.535156 119.3125 -72.234375 C 96.6875 -64.941406 76.617188 -58.132812 59.109375 -51.8125 C 41.597656 -45.488281 28.21875 -40.378906 18.96875 -36.484375 C 2.914062 -29.671875 -9.609375 -24.804688 -18.609375 -21.890625 C -27.609375 -18.972656 -34.539062 -17.878906 -39.40625 -18.609375 C -44.269531 -19.335938 -48.890625 -21.40625 -53.265625 -24.8125 C -76.140625 -44.757812 -56.679688 -71.519531 5.109375 -105.09375 L 29.921875 -118.21875 L 32.84375 -137.203125 C 35.757812 -152.765625 40.132812 -171.734375 45.96875 -194.109375 C 51.8125 -216.492188 58.257812 -239.484375 65.3125 -263.078125 C 72.363281 -286.671875 79.171875 -307.953125 85.734375 -326.921875 C 92.304688 -345.898438 97.785156 -359.285156 102.171875 -367.078125 C 103.628906 -370.484375 104.359375 -372.550781 104.359375 -373.28125 C 104.359375 -374.007812 103.382812 -374.375 101.4375 -374.375 C 98.03125 -374.375 93.039062 -372.789062 86.46875 -369.625 C 79.90625 -366.46875 76.625 -364.398438 76.625 -363.421875 C 77.59375 -361.472656 78.566406 -360.5 79.546875 -360.5 C 81.492188 -360.5 82.707031 -359.769531 83.1875 -358.3125 C 83.1875 -357.820312 81.96875 -357.09375 79.53125 -356.125 C 77.101562 -355.15625 74.1875 -354.425781 70.78125 -353.9375 C 67.375 -353.445312 63.238281 -352.472656 58.375 -351.015625 C 53.507812 -349.554688 49.375 -348.097656 45.96875 -346.640625 C 38.1875 -343.234375 32.472656 -341.648438 28.828125 -341.890625 C 25.179688 -342.140625 20.679688 -343.96875 15.328125 -347.375 C 10.460938 -350.78125 7.421875 -355.765625 6.203125 -362.328125 C 4.984375 -368.898438 5.832031 -375.347656 8.75 -381.671875 C 12.644531 -389.941406 21.28125 -398.695312 34.65625 -407.9375 C 48.039062 -417.175781 64.582031 -426.175781 84.28125 -434.9375 C 103.988281 -443.695312 124.789062 -450.992188 146.6875 -456.828125 C 157.875 -460.234375 169.910156 -463.03125 182.796875 -465.21875 C 195.691406 -467.414062 208.097656 -469.117188 220.015625 -470.328125 C 231.941406 -471.546875 241.3125 -471.910156 248.125 -471.421875 C 260.769531 -470.941406 270.007812 -467.90625 275.84375 -462.3125 C 281.6875 -456.71875 283.632812 -449.539062 281.6875 -440.78125 C 281.195312 -437.375 277.179688 -434.085938 269.640625 -430.921875 C 262.109375 -427.765625 248.367188 -422.78125 228.421875 -415.96875 Z M 228.421875 -415.96875 "/></g></g></g><g fill="#ff00ff" fill-opacity="1"><g transform="translate(380.802249, 559.513107)"><g><path d="M 94.875 -280.953125 C 90.488281 -279.492188 81.488281 -254.925781 67.875 -207.25 C 62.03125 -187.789062 57.769531 -169.179688 55.09375 -151.421875 C 52.414062 -133.671875 51.441406 -119.320312 52.171875 -108.375 C 52.898438 -97.425781 55.457031 -91.953125 59.84375 -91.953125 C 61.300781 -91.953125 63.972656 -92.921875 67.859375 -94.859375 C 71.753906 -96.804688 75.648438 -99 79.546875 -101.4375 C 89.765625 -108.25 100.585938 -117.128906 112.015625 -128.078125 C 123.453125 -139.023438 133.789062 -150.09375 143.03125 -161.28125 C 148.382812 -168.09375 154.46875 -176.484375 161.28125 -186.453125 C 168.09375 -196.429688 174.171875 -205.675781 179.515625 -214.1875 C 184.867188 -222.695312 187.789062 -227.925781 188.28125 -229.875 C 188.28125 -232.3125 181.957031 -235.960938 169.3125 -240.828125 C 158.601562 -244.710938 147.164062 -250.0625 135 -256.875 C 122.84375 -263.6875 113.359375 -270.007812 106.546875 -275.84375 C 101.191406 -280.226562 97.300781 -281.929688 94.875 -280.953125 Z M 159.8125 -399.1875 C 157.875 -393.832031 154.957031 -391.640625 151.0625 -392.609375 C 148.625 -393.097656 145.582031 -391.148438 141.9375 -386.765625 C 138.289062 -382.390625 135.367188 -377.523438 133.171875 -372.171875 C 130.984375 -366.828125 130.625 -363.179688 132.09375 -361.234375 C 134.519531 -357.828125 140.113281 -353.082031 148.875 -347 C 157.632812 -340.914062 167.363281 -334.710938 178.0625 -328.390625 C 188.769531 -322.066406 198.257812 -317.082031 206.53125 -313.4375 C 214.800781 -309.789062 219.421875 -308.695312 220.390625 -310.15625 C 220.878906 -311.125 221.609375 -313.914062 222.578125 -318.53125 C 223.546875 -323.15625 224.519531 -328.144531 225.5 -333.5 C 227.445312 -342.75 228.296875 -353.085938 228.046875 -364.515625 C 227.804688 -375.953125 226.832031 -386.65625 225.125 -396.625 C 223.425781 -406.601562 220.875 -414.265625 217.46875 -419.609375 C 214.0625 -426.421875 210.164062 -431.40625 205.78125 -434.5625 C 201.40625 -437.726562 195.328125 -440.046875 187.546875 -441.515625 C 181.710938 -442.484375 178.304688 -442.601562 177.328125 -441.875 C 176.359375 -441.144531 175.875 -438.832031 175.875 -434.9375 C 175.875 -429.101562 173.925781 -423.023438 170.03125 -416.703125 C 168.082031 -414.265625 166.132812 -411.34375 164.1875 -407.9375 C 162.25 -404.53125 160.789062 -401.613281 159.8125 -399.1875 Z M 36.484375 -19.703125 C 21.890625 -23.109375 10.210938 -30.160156 1.453125 -40.859375 C -10.703125 -56.429688 -18.238281 -77.351562 -21.15625 -103.625 C -23.59375 -130.875 -20.796875 -161.160156 -12.765625 -194.484375 C -4.742188 -227.804688 8.992188 -266.847656 28.453125 -311.609375 L 44.515625 -348.828125 L 40.140625 -363.421875 C 31.378906 -393.585938 35.269531 -416.453125 51.8125 -432.015625 C 55.707031 -435.910156 63.003906 -441.265625 73.703125 -448.078125 C 84.410156 -454.890625 95.601562 -461.457031 107.28125 -467.78125 C 118.957031 -474.101562 127.957031 -478.484375 134.28125 -480.921875 C 146.4375 -485.296875 161.148438 -487.484375 178.421875 -487.484375 C 195.691406 -487.484375 209.4375 -485.296875 219.65625 -480.921875 C 239.113281 -472.160156 254.441406 -456.347656 265.640625 -433.484375 C 280.234375 -405.265625 284 -368.285156 276.9375 -322.546875 C 269.882812 -276.816406 252.738281 -228.65625 225.5 -178.0625 C 211.382812 -150.820312 194.597656 -125.28125 175.140625 -101.4375 C 155.679688 -77.59375 136.46875 -58.617188 117.5 -44.515625 C 101.4375 -32.347656 86.957031 -24.316406 74.0625 -20.421875 C 61.175781 -16.535156 48.648438 -16.296875 36.484375 -19.703125 Z M 36.484375 -19.703125 "/></g></g></g><g fill="#ff00ff" fill-opacity="1"><g transform="translate(644.231574, 559.513107)"><g><path d="M 5.84375 -48.171875 C -5.351562 -53.035156 -13.019531 -61.546875 -17.15625 -73.703125 C -21.289062 -85.867188 -21.65625 -103.992188 -18.25 -128.078125 C -14.84375 -152.160156 -7.785156 -184.144531 2.921875 -224.03125 C 6.328125 -236.195312 10.460938 -250.550781 15.328125 -267.09375 C 20.191406 -283.632812 24.929688 -299.203125 29.546875 -313.796875 C 34.171875 -328.390625 37.457031 -338.363281 39.40625 -343.71875 C 55.945312 -385.070312 71.269531 -412.4375 85.375 -425.8125 C 99.488281 -439.195312 113.359375 -439.804688 126.984375 -427.640625 C 131.847656 -424.234375 134.765625 -421.3125 135.734375 -418.875 C 136.710938 -416.445312 137.441406 -412.316406 137.921875 -406.484375 C 137.921875 -403.078125 138.285156 -398.085938 139.015625 -391.515625 C 139.742188 -384.953125 140.351562 -378.992188 140.84375 -373.640625 C 141.8125 -367.804688 142.539062 -359.78125 143.03125 -349.5625 C 143.519531 -339.34375 143.765625 -329.851562 143.765625 -321.09375 C 144.734375 -285.09375 145.828125 -255.414062 147.046875 -232.0625 C 148.265625 -208.707031 149.96875 -189.367188 152.15625 -174.046875 C 154.34375 -158.722656 157.140625 -144.976562 160.546875 -132.8125 C 162.492188 -126.488281 164.316406 -120.769531 166.015625 -115.65625 C 167.722656 -110.550781 168.820312 -107.757812 169.3125 -107.28125 C 170.28125 -106.300781 172.707031 -108.242188 176.59375 -113.109375 C 180.488281 -117.972656 184.382812 -124.300781 188.28125 -132.09375 C 193.632812 -142.789062 198.742188 -157.382812 203.609375 -175.875 C 208.472656 -194.363281 212.972656 -214.914062 217.109375 -237.53125 C 221.242188 -260.15625 224.644531 -283.382812 227.3125 -307.21875 C 229.988281 -331.0625 231.570312 -353.6875 232.0625 -375.09375 C 233.039062 -400.882812 234.378906 -419.375 236.078125 -430.5625 C 237.785156 -441.75 240.582031 -449.535156 244.46875 -453.921875 C 251.28125 -460.242188 258.578125 -461.941406 266.359375 -459.015625 C 274.148438 -456.097656 279.988281 -449.53125 283.875 -439.3125 C 289.71875 -424.238281 287.53125 -387.023438 277.3125 -327.671875 C 274.394531 -309.660156 271.71875 -294.207031 269.28125 -281.3125 C 266.851562 -268.425781 264.300781 -255.050781 261.625 -241.1875 C 258.945312 -227.320312 255.421875 -209.6875 251.046875 -188.28125 C 241.796875 -141.570312 229.992188 -107.269531 215.640625 -85.375 C 201.296875 -63.488281 184.878906 -54.734375 166.390625 -59.109375 C 160.066406 -60.566406 153.007812 -65.066406 145.21875 -72.609375 C 137.4375 -80.148438 131.359375 -88.539062 126.984375 -97.78125 C 125.035156 -102.65625 123.207031 -107.765625 121.5 -113.109375 C 119.800781 -118.460938 117.859375 -126.003906 115.671875 -135.734375 C 113.484375 -145.460938 110.6875 -159.328125 107.28125 -177.328125 C 103.875 -194.359375 100.953125 -208.832031 98.515625 -220.75 C 96.085938 -232.675781 94.628906 -238.148438 94.140625 -237.171875 C 93.648438 -235.710938 92.066406 -229.390625 89.390625 -218.203125 C 86.710938 -207.015625 83.789062 -194.726562 80.625 -181.34375 C 77.46875 -167.96875 74.921875 -156.65625 72.984375 -147.40625 C 70.546875 -135.726562 67.5 -123.566406 63.84375 -110.921875 C 60.195312 -98.273438 56.671875 -87.328125 53.265625 -78.078125 C 49.867188 -68.835938 46.953125 -62.757812 44.515625 -59.84375 C 41.597656 -55.945312 37.460938 -52.414062 32.109375 -49.25 C 26.753906 -46.09375 22.132812 -44.515625 18.25 -44.515625 C 17.757812 -44.515625 16.175781 -45 13.5 -45.96875 C 10.820312 -46.945312 8.269531 -47.679688 5.84375 -48.171875 Z M 5.84375 -48.171875 "/></g></g></g><g fill="#00ffff" fill-opacity="1"><g transform="translate(104.05247, 559.513107)"><g><path d="M 228.421875 -415.96875 C 218.691406 -413.050781 210.175781 -410.253906 202.875 -407.578125 C 195.570312 -404.898438 191.4375 -403.070312 190.46875 -402.09375 C 189.5 -401.125 186.703125 -395.046875 182.078125 -383.859375 C 177.453125 -372.671875 171.851562 -359.046875 165.28125 -342.984375 C 158.71875 -326.929688 152.273438 -310.632812 145.953125 -294.09375 C 139.628906 -277.550781 134.273438 -263.441406 129.890625 -251.765625 C 123.566406 -234.742188 117.609375 -217.960938 112.015625 -201.421875 C 106.421875 -184.878906 102.164062 -171.007812 99.25 -159.8125 C 96.332031 -148.625 95.113281 -142.546875 95.59375 -141.578125 C 96.082031 -141.085938 99.242188 -141.691406 105.078125 -143.390625 C 110.921875 -145.097656 117.734375 -147.171875 125.515625 -149.609375 C 147.898438 -156.898438 168.695312 -162.734375 187.90625 -167.109375 C 207.125 -171.492188 219.410156 -173.195312 224.765625 -172.21875 C 234.984375 -170.28125 243.132812 -165.414062 249.21875 -157.625 C 255.300781 -149.84375 257.367188 -141.332031 255.421875 -132.09375 C 253.960938 -124.789062 248.851562 -118.582031 240.09375 -113.46875 C 231.332031 -108.363281 214.0625 -101.921875 188.28125 -94.140625 C 164.925781 -86.835938 141.9375 -79.535156 119.3125 -72.234375 C 96.6875 -64.941406 76.617188 -58.132812 59.109375 -51.8125 C 41.597656 -45.488281 28.21875 -40.378906 18.96875 -36.484375 C 2.914062 -29.671875 -9.609375 -24.804688 -18.609375 -21.890625 C -27.609375 -18.972656 -34.539062 -17.878906 -39.40625 -18.609375 C -44.269531 -19.335938 -48.890625 -21.40625 -53.265625 -24.8125 C -76.140625 -44.757812 -56.679688 -71.519531 5.109375 -105.09375 L 29.921875 -118.21875 L 32.84375 -137.203125 C 35.757812 -152.765625 40.132812 -171.734375 45.96875 -194.109375 C 51.8125 -216.492188 58.257812 -239.484375 65.3125 -263.078125 C 72.363281 -286.671875 79.171875 -307.953125 85.734375 -326.921875 C 92.304688 -345.898438 97.785156 -359.285156 102.171875 -367.078125 C 103.628906 -370.484375 104.359375 -372.550781 104.359375 -373.28125 C 104.359375 -374.007812 103.382812 -374.375 101.4375 -374.375 C 98.03125 -374.375 93.039062 -372.789062 86.46875 -369.625 C 79.90625 -366.46875 76.625 -364.398438 76.625 -363.421875 C 77.59375 -361.472656 78.566406 -360.5 79.546875 -360.5 C 81.492188 -360.5 82.707031 -359.769531 83.1875 -358.3125 C 83.1875 -357.820312 81.96875 -357.09375 79.53125 -356.125 C 77.101562 -355.15625 74.1875 -354.425781 70.78125 -353.9375 C 67.375 -353.445312 63.238281 -352.472656 58.375 -351.015625 C 53.507812 -349.554688 49.375 -348.097656 45.96875 -346.640625 C 38.1875 -343.234375 32.472656 -341.648438 28.828125 -341.890625 C 25.179688 -342.140625 20.679688 -343.96875 15.328125 -347.375 C 10.460938 -350.78125 7.421875 -355.765625 6.203125 -362.328125 C 4.984375 -368.898438 5.832031 -375.347656 8.75 -381.671875 C 12.644531 -389.941406 21.28125 -398.695312 34.65625 -407.9375 C 48.039062 -417.175781 64.582031 -426.175781 84.28125 -434.9375 C 103.988281 -443.695312 124.789062 -450.992188 146.6875 -456.828125 C 157.875 -460.234375 169.910156 -463.03125 182.796875 -465.21875 C 195.691406 -467.414062 208.097656 -469.117188 220.015625 -470.328125 C 231.941406 -471.546875 241.3125 -471.910156 248.125 -471.421875 C 260.769531 -470.941406 270.007812 -467.90625 275.84375 -462.3125 C 281.6875 -456.71875 283.632812 -449.539062 281.6875 -440.78125 C 281.195312 -437.375 277.179688 -434.085938 269.640625 -430.921875 C 262.109375 -427.765625 248.367188 -422.78125 228.421875 -415.96875 Z M 228.421875 -415.96875 "/></g></g></g><g fill="#00ffff" fill-opacity="1"><g transform="translate(350.698186, 559.513107)"><g><path d="M 94.875 -280.953125 C 90.488281 -279.492188 81.488281 -254.925781 67.875 -207.25 C 62.03125 -187.789062 57.769531 -169.179688 55.09375 -151.421875 C 52.414062 -133.671875 51.441406 -119.320312 52.171875 -108.375 C 52.898438 -97.425781 55.457031 -91.953125 59.84375 -91.953125 C 61.300781 -91.953125 63.972656 -92.921875 67.859375 -94.859375 C 71.753906 -96.804688 75.648438 -99 79.546875 -101.4375 C 89.765625 -108.25 100.585938 -117.128906 112.015625 -128.078125 C 123.453125 -139.023438 133.789062 -150.09375 143.03125 -161.28125 C 148.382812 -168.09375 154.46875 -176.484375 161.28125 -186.453125 C 168.09375 -196.429688 174.171875 -205.675781 179.515625 -214.1875 C 184.867188 -222.695312 187.789062 -227.925781 188.28125 -229.875 C 188.28125 -232.3125 181.957031 -235.960938 169.3125 -240.828125 C 158.601562 -244.710938 147.164062 -250.0625 135 -256.875 C 122.84375 -263.6875 113.359375 -270.007812 106.546875 -275.84375 C 101.191406 -280.226562 97.300781 -281.929688 94.875 -280.953125 Z M 159.8125 -399.1875 C 157.875 -393.832031 154.957031 -391.640625 151.0625 -392.609375 C 148.625 -393.097656 145.582031 -391.148438 141.9375 -386.765625 C 138.289062 -382.390625 135.367188 -377.523438 133.171875 -372.171875 C 130.984375 -366.828125 130.625 -363.179688 132.09375 -361.234375 C 134.519531 -357.828125 140.113281 -353.082031 148.875 -347 C 157.632812 -340.914062 167.363281 -334.710938 178.0625 -328.390625 C 188.769531 -322.066406 198.257812 -317.082031 206.53125 -313.4375 C 214.800781 -309.789062 219.421875 -308.695312 220.390625 -310.15625 C 220.878906 -311.125 221.609375 -313.914062 222.578125 -318.53125 C 223.546875 -323.15625 224.519531 -328.144531 225.5 -333.5 C 227.445312 -342.75 228.296875 -353.085938 228.046875 -364.515625 C 227.804688 -375.953125 226.832031 -386.65625 225.125 -396.625 C 223.425781 -406.601562 220.875 -414.265625 217.46875 -419.609375 C 214.0625 -426.421875 210.164062 -431.40625 205.78125 -434.5625 C 201.40625 -437.726562 195.328125 -440.046875 187.546875 -441.515625 C 181.710938 -442.484375 178.304688 -442.601562 177.328125 -441.875 C 176.359375 -441.144531 175.875 -438.832031 175.875 -434.9375 C 175.875 -429.101562 173.925781 -423.023438 170.03125 -416.703125 C 168.082031 -414.265625 166.132812 -411.34375 164.1875 -407.9375 C 162.25 -404.53125 160.789062 -401.613281 159.8125 -399.1875 Z M 36.484375 -19.703125 C 21.890625 -23.109375 10.210938 -30.160156 1.453125 -40.859375 C -10.703125 -56.429688 -18.238281 -77.351562 -21.15625 -103.625 C -23.59375 -130.875 -20.796875 -161.160156 -12.765625 -194.484375 C -4.742188 -227.804688 8.992188 -266.847656 28.453125 -311.609375 L 44.515625 -348.828125 L 40.140625 -363.421875 C 31.378906 -393.585938 35.269531 -416.453125 51.8125 -432.015625 C 55.707031 -435.910156 63.003906 -441.265625 73.703125 -448.078125 C 84.410156 -454.890625 95.601562 -461.457031 107.28125 -467.78125 C 118.957031 -474.101562 127.957031 -478.484375 134.28125 -480.921875 C 146.4375 -485.296875 161.148438 -487.484375 178.421875 -487.484375 C 195.691406 -487.484375 209.4375 -485.296875 219.65625 -480.921875 C 239.113281 -472.160156 254.441406 -456.347656 265.640625 -433.484375 C 280.234375 -405.265625 284 -368.285156 276.9375 -322.546875 C 269.882812 -276.816406 252.738281 -228.65625 225.5 -178.0625 C 211.382812 -150.820312 194.597656 -125.28125 175.140625 -101.4375 C 155.679688 -77.59375 136.46875 -58.617188 117.5 -44.515625 C 101.4375 -32.347656 86.957031 -24.316406 74.0625 -20.421875 C 61.175781 -16.535156 48.648438 -16.296875 36.484375 -19.703125 Z M 36.484375 -19.703125 "/></g></g></g><g fill="#00ffff" fill-opacity="1"><g transform="translate(614.127512, 559.513107)"><g><path d="M 5.84375 -48.171875 C -5.351562 -53.035156 -13.019531 -61.546875 -17.15625 -73.703125 C -21.289062 -85.867188 -21.65625 -103.992188 -18.25 -128.078125 C -14.84375 -152.160156 -7.785156 -184.144531 2.921875 -224.03125 C 6.328125 -236.195312 10.460938 -250.550781 15.328125 -267.09375 C 20.191406 -283.632812 24.929688 -299.203125 29.546875 -313.796875 C 34.171875 -328.390625 37.457031 -338.363281 39.40625 -343.71875 C 55.945312 -385.070312 71.269531 -412.4375 85.375 -425.8125 C 99.488281 -439.195312 113.359375 -439.804688 126.984375 -427.640625 C 131.847656 -424.234375 134.765625 -421.3125 135.734375 -418.875 C 136.710938 -416.445312 137.441406 -412.316406 137.921875 -406.484375 C 137.921875 -403.078125 138.285156 -398.085938 139.015625 -391.515625 C 139.742188 -384.953125 140.351562 -378.992188 140.84375 -373.640625 C 141.8125 -367.804688 142.539062 -359.78125 143.03125 -349.5625 C 143.519531 -339.34375 143.765625 -329.851562 143.765625 -321.09375 C 144.734375 -285.09375 145.828125 -255.414062 147.046875 -232.0625 C 148.265625 -208.707031 149.96875 -189.367188 152.15625 -174.046875 C 154.34375 -158.722656 157.140625 -144.976562 160.546875 -132.8125 C 162.492188 -126.488281 164.316406 -120.769531 166.015625 -115.65625 C 167.722656 -110.550781 168.820312 -107.757812 169.3125 -107.28125 C 170.28125 -106.300781 172.707031 -108.242188 176.59375 -113.109375 C 180.488281 -117.972656 184.382812 -124.300781 188.28125 -132.09375 C 193.632812 -142.789062 198.742188 -157.382812 203.609375 -175.875 C 208.472656 -194.363281 212.972656 -214.914062 217.109375 -237.53125 C 221.242188 -260.15625 224.644531 -283.382812 227.3125 -307.21875 C 229.988281 -331.0625 231.570312 -353.6875 232.0625 -375.09375 C 233.039062 -400.882812 234.378906 -419.375 236.078125 -430.5625 C 237.785156 -441.75 240.582031 -449.535156 244.46875 -453.921875 C 251.28125 -460.242188 258.578125 -461.941406 266.359375 -459.015625 C 274.148438 -456.097656 279.988281 -449.53125 283.875 -439.3125 C 289.71875 -424.238281 287.53125 -387.023438 277.3125 -327.671875 C 274.394531 -309.660156 271.71875 -294.207031 269.28125 -281.3125 C 266.851562 -268.425781 264.300781 -255.050781 261.625 -241.1875 C 258.945312 -227.320312 255.421875 -209.6875 251.046875 -188.28125 C 241.796875 -141.570312 229.992188 -107.269531 215.640625 -85.375 C 201.296875 -63.488281 184.878906 -54.734375 166.390625 -59.109375 C 160.066406 -60.566406 153.007812 -65.066406 145.21875 -72.609375 C 137.4375 -80.148438 131.359375 -88.539062 126.984375 -97.78125 C 125.035156 -102.65625 123.207031 -107.765625 121.5 -113.109375 C 119.800781 -118.460938 117.859375 -126.003906 115.671875 -135.734375 C 113.484375 -145.460938 110.6875 -159.328125 107.28125 -177.328125 C 103.875 -194.359375 100.953125 -208.832031 98.515625 -220.75 C 96.085938 -232.675781 94.628906 -238.148438 94.140625 -237.171875 C 93.648438 -235.710938 92.066406 -229.390625 89.390625 -218.203125 C 86.710938 -207.015625 83.789062 -194.726562 80.625 -181.34375 C 77.46875 -167.96875 74.921875 -156.65625 72.984375 -147.40625 C 70.546875 -135.726562 67.5 -123.566406 63.84375 -110.921875 C 60.195312 -98.273438 56.671875 -87.328125 53.265625 -78.078125 C 49.867188 -68.835938 46.953125 -62.757812 44.515625 -59.84375 C 41.597656 -55.945312 37.460938 -52.414062 32.109375 -49.25 C 26.753906 -46.09375 22.132812 -44.515625 18.25 -44.515625 C 17.757812 -44.515625 16.175781 -45 13.5 -45.96875 C 10.820312 -46.945312 8.269531 -47.679688 5.84375 -48.171875 Z M 5.84375 -48.171875 "/></g></g></g><g fill="#ffffff" fill-opacity="1"><g transform="translate(119.104502, 559.513107)"><g><path d="M 228.421875 -415.96875 C 218.691406 -413.050781 210.175781 -410.253906 202.875 -407.578125 C 195.570312 -404.898438 191.4375 -403.070312 190.46875 -402.09375 C 189.5 -401.125 186.703125 -395.046875 182.078125 -383.859375 C 177.453125 -372.671875 171.851562 -359.046875 165.28125 -342.984375 C 158.71875 -326.929688 152.273438 -310.632812 145.953125 -294.09375 C 139.628906 -277.550781 134.273438 -263.441406 129.890625 -251.765625 C 123.566406 -234.742188 117.609375 -217.960938 112.015625 -201.421875 C 106.421875 -184.878906 102.164062 -171.007812 99.25 -159.8125 C 96.332031 -148.625 95.113281 -142.546875 95.59375 -141.578125 C 96.082031 -141.085938 99.242188 -141.691406 105.078125 -143.390625 C 110.921875 -145.097656 117.734375 -147.171875 125.515625 -149.609375 C 147.898438 -156.898438 168.695312 -162.734375 187.90625 -167.109375 C 207.125 -171.492188 219.410156 -173.195312 224.765625 -172.21875 C 234.984375 -170.28125 243.132812 -165.414062 249.21875 -157.625 C 255.300781 -149.84375 257.367188 -141.332031 255.421875 -132.09375 C 253.960938 -124.789062 248.851562 -118.582031 240.09375 -113.46875 C 231.332031 -108.363281 214.0625 -101.921875 188.28125 -94.140625 C 164.925781 -86.835938 141.9375 -79.535156 119.3125 -72.234375 C 96.6875 -64.941406 76.617188 -58.132812 59.109375 -51.8125 C 41.597656 -45.488281 28.21875 -40.378906 18.96875 -36.484375 C 2.914062 -29.671875 -9.609375 -24.804688 -18.609375 -21.890625 C -27.609375 -18.972656 -34.539062 -17.878906 -39.40625 -18.609375 C -44.269531 -19.335938 -48.890625 -21.40625 -53.265625 -24.8125 C -76.140625 -44.757812 -56.679688 -71.519531 5.109375 -105.09375 L 29.921875 -118.21875 L 32.84375 -137.203125 C 35.757812 -152.765625 40.132812 -171.734375 45.96875 -194.109375 C 51.8125 -216.492188 58.257812 -239.484375 65.3125 -263.078125 C 72.363281 -286.671875 79.171875 -307.953125 85.734375 -326.921875 C 92.304688 -345.898438 97.785156 -359.285156 102.171875 -367.078125 C 103.628906 -370.484375 104.359375 -372.550781 104.359375 -373.28125 C 104.359375 -374.007812 103.382812 -374.375 101.4375 -374.375 C 98.03125 -374.375 93.039062 -372.789062 86.46875 -369.625 C 79.90625 -366.46875 76.625 -364.398438 76.625 -363.421875 C 77.59375 -361.472656 78.566406 -360.5 79.546875 -360.5 C 81.492188 -360.5 82.707031 -359.769531 83.1875 -358.3125 C 83.1875 -357.820312 81.96875 -357.09375 79.53125 -356.125 C 77.101562 -355.15625 74.1875 -354.425781 70.78125 -353.9375 C 67.375 -353.445312 63.238281 -352.472656 58.375 -351.015625 C 53.507812 -349.554688 49.375 -348.097656 45.96875 -346.640625 C 38.1875 -343.234375 32.472656 -341.648438 28.828125 -341.890625 C 25.179688 -342.140625 20.679688 -343.96875 15.328125 -347.375 C 10.460938 -350.78125 7.421875 -355.765625 6.203125 -362.328125 C 4.984375 -368.898438 5.832031 -375.347656 8.75 -381.671875 C 12.644531 -389.941406 21.28125 -398.695312 34.65625 -407.9375 C 48.039062 -417.175781 64.582031 -426.175781 84.28125 -434.9375 C 103.988281 -443.695312 124.789062 -450.992188 146.6875 -456.828125 C 157.875 -460.234375 169.910156 -463.03125 182.796875 -465.21875 C 195.691406 -467.414062 208.097656 -469.117188 220.015625 -470.328125 C 231.941406 -471.546875 241.3125 -471.910156 248.125 -471.421875 C 260.769531 -470.941406 270.007812 -467.90625 275.84375 -462.3125 C 281.6875 -456.71875 283.632812 -449.539062 281.6875 -440.78125 C 281.195312 -437.375 277.179688 -434.085938 269.640625 -430.921875 C 262.109375 -427.765625 248.367188 -422.78125 228.421875 -415.96875 Z M 228.421875 -415.96875 "/></g></g></g><g fill="#ffffff" fill-opacity="1"><g transform="translate(365.750218, 559.513107)"><g><path d="M 94.875 -280.953125 C 90.488281 -279.492188 81.488281 -254.925781 67.875 -207.25 C 62.03125 -187.789062 57.769531 -169.179688 55.09375 -151.421875 C 52.414062 -133.671875 51.441406 -119.320312 52.171875 -108.375 C 52.898438 -97.425781 55.457031 -91.953125 59.84375 -91.953125 C 61.300781 -91.953125 63.972656 -92.921875 67.859375 -94.859375 C 71.753906 -96.804688 75.648438 -99 79.546875 -101.4375 C 89.765625 -108.25 100.585938 -117.128906 112.015625 -128.078125 C 123.453125 -139.023438 133.789062 -150.09375 143.03125 -161.28125 C 148.382812 -168.09375 154.46875 -176.484375 161.28125 -186.453125 C 168.09375 -196.429688 174.171875 -205.675781 179.515625 -214.1875 C 184.867188 -222.695312 187.789062 -227.925781 188.28125 -229.875 C 188.28125 -232.3125 181.957031 -235.960938 169.3125 -240.828125 C 158.601562 -244.710938 147.164062 -250.0625 135 -256.875 C 122.84375 -263.6875 113.359375 -270.007812 106.546875 -275.84375 C 101.191406 -280.226562 97.300781 -281.929688 94.875 -280.953125 Z M 159.8125 -399.1875 C 157.875 -393.832031 154.957031 -391.640625 151.0625 -392.609375 C 148.625 -393.097656 145.582031 -391.148438 141.9375 -386.765625 C 138.289062 -382.390625 135.367188 -377.523438 133.171875 -372.171875 C 130.984375 -366.828125 130.625 -363.179688 132.09375 -361.234375 C 134.519531 -357.828125 140.113281 -353.082031 148.875 -347 C 157.632812 -340.914062 167.363281 -334.710938 178.0625 -328.390625 C 188.769531 -322.066406 198.257812 -317.082031 206.53125 -313.4375 C 214.800781 -309.789062 219.421875 -308.695312 220.390625 -310.15625 C 220.878906 -311.125 221.609375 -313.914062 222.578125 -318.53125 C 223.546875 -323.15625 224.519531 -328.144531 225.5 -333.5 C 227.445312 -342.75 228.296875 -353.085938 228.046875 -364.515625 C 227.804688 -375.953125 226.832031 -386.65625 225.125 -396.625 C 223.425781 -406.601562 220.875 -414.265625 217.46875 -419.609375 C 214.0625 -426.421875 210.164062 -431.40625 205.78125 -434.5625 C 201.40625 -437.726562 195.328125 -440.046875 187.546875 -441.515625 C 181.710938 -442.484375 178.304688 -442.601562 177.328125 -441.875 C 176.359375 -441.144531 175.875 -438.832031 175.875 -434.9375 C 175.875 -429.101562 173.925781 -423.023438 170.03125 -416.703125 C 168.082031 -414.265625 166.132812 -411.34375 164.1875 -407.9375 C 162.25 -404.53125 160.789062 -401.613281 159.8125 -399.1875 Z M 36.484375 -19.703125 C 21.890625 -23.109375 10.210938 -30.160156 1.453125 -40.859375 C -10.703125 -56.429688 -18.238281 -77.351562 -21.15625 -103.625 C -23.59375 -130.875 -20.796875 -161.160156 -12.765625 -194.484375 C -4.742188 -227.804688 8.992188 -266.847656 28.453125 -311.609375 L 44.515625 -348.828125 L 40.140625 -363.421875 C 31.378906 -393.585938 35.269531 -416.453125 51.8125 -432.015625 C 55.707031 -435.910156 63.003906 -441.265625 73.703125 -448.078125 C 84.410156 -454.890625 95.601562 -461.457031 107.28125 -467.78125 C 118.957031 -474.101562 127.957031 -478.484375 134.28125 -480.921875 C 146.4375 -485.296875 161.148438 -487.484375 178.421875 -487.484375 C 195.691406 -487.484375 209.4375 -485.296875 219.65625 -480.921875 C 239.113281 -472.160156 254.441406 -456.347656 265.640625 -433.484375 C 280.234375 -405.265625 284 -368.285156 276.9375 -322.546875 C 269.882812 -276.816406 252.738281 -228.65625 225.5 -178.0625 C 211.382812 -150.820312 194.597656 -125.28125 175.140625 -101.4375 C 155.679688 -77.59375 136.46875 -58.617188 117.5 -44.515625 C 101.4375 -32.347656 86.957031 -24.316406 74.0625 -20.421875 C 61.175781 -16.535156 48.648438 -16.296875 36.484375 -19.703125 Z M 36.484375 -19.703125 "/></g></g></g><g fill="#ffffff" fill-opacity="1"><g transform="translate(629.179543, 559.513107)"><g><path d="M 5.84375 -48.171875 C -5.351562 -53.035156 -13.019531 -61.546875 -17.15625 -73.703125 C -21.289062 -85.867188 -21.65625 -103.992188 -18.25 -128.078125 C -14.84375 -152.160156 -7.785156 -184.144531 2.921875 -224.03125 C 6.328125 -236.195312 10.460938 -250.550781 15.328125 -267.09375 C 20.191406 -283.632812 24.929688 -299.203125 29.546875 -313.796875 C 34.171875 -328.390625 37.457031 -338.363281 39.40625 -343.71875 C 55.945312 -385.070312 71.269531 -412.4375 85.375 -425.8125 C 99.488281 -439.195312 113.359375 -439.804688 126.984375 -427.640625 C 131.847656 -424.234375 134.765625 -421.3125 135.734375 -418.875 C 136.710938 -416.445312 137.441406 -412.316406 137.921875 -406.484375 C 137.921875 -403.078125 138.285156 -398.085938 139.015625 -391.515625 C 139.742188 -384.953125 140.351562 -378.992188 140.84375 -373.640625 C 141.8125 -367.804688 142.539062 -359.78125 143.03125 -349.5625 C 143.519531 -339.34375 143.765625 -329.851562 143.765625 -321.09375 C 144.734375 -285.09375 145.828125 -255.414062 147.046875 -232.0625 C 148.265625 -208.707031 149.96875 -189.367188 152.15625 -174.046875 C 154.34375 -158.722656 157.140625 -144.976562 160.546875 -132.8125 C 162.492188 -126.488281 164.316406 -120.769531 166.015625 -115.65625 C 167.722656 -110.550781 168.820312 -107.757812 169.3125 -107.28125 C 170.28125 -106.300781 172.707031 -108.242188 176.59375 -113.109375 C 180.488281 -117.972656 184.382812 -124.300781 188.28125 -132.09375 C 193.632812 -142.789062 198.742188 -157.382812 203.609375 -175.875 C 208.472656 -194.363281 212.972656 -214.914062 217.109375 -237.53125 C 221.242188 -260.15625 224.644531 -283.382812 227.3125 -307.21875 C 229.988281 -331.0625 231.570312 -353.6875 232.0625 -375.09375 C 233.039062 -400.882812 234.378906 -419.375 236.078125 -430.5625 C 237.785156 -441.75 240.582031 -449.535156 244.46875 -453.921875 C 251.28125 -460.242188 258.578125 -461.941406 266.359375 -459.015625 C 274.148438 -456.097656 279.988281 -449.53125 283.875 -439.3125 C 289.71875 -424.238281 287.53125 -387.023438 277.3125 -327.671875 C 274.394531 -309.660156 271.71875 -294.207031 269.28125 -281.3125 C 266.851562 -268.425781 264.300781 -255.050781 261.625 -241.1875 C 258.945312 -227.320312 255.421875 -209.6875 251.046875 -188.28125 C 241.796875 -141.570312 229.992188 -107.269531 215.640625 -85.375 C 201.296875 -63.488281 184.878906 -54.734375 166.390625 -59.109375 C 160.066406 -60.566406 153.007812 -65.066406 145.21875 -72.609375 C 137.4375 -80.148438 131.359375 -88.539062 126.984375 -97.78125 C 125.035156 -102.65625 123.207031 -107.765625 121.5 -113.109375 C 119.800781 -118.460938 117.859375 -126.003906 115.671875 -135.734375 C 113.484375 -145.460938 110.6875 -159.328125 107.28125 -177.328125 C 103.875 -194.359375 100.953125 -208.832031 98.515625 -220.75 C 96.085938 -232.675781 94.628906 -238.148438 94.140625 -237.171875 C 93.648438 -235.710938 92.066406 -229.390625 89.390625 -218.203125 C 86.710938 -207.015625 83.789062 -194.726562 80.625 -181.34375 C 77.46875 -167.96875 74.921875 -156.65625 72.984375 -147.40625 C 70.546875 -135.726562 67.5 -123.566406 63.84375 -110.921875 C 60.195312 -98.273438 56.671875 -87.328125 53.265625 -78.078125 C 49.867188 -68.835938 46.953125 -62.757812 44.515625 -59.84375 C 41.597656 -55.945312 37.460938 -52.414062 32.109375 -49.25 C 26.753906 -46.09375 22.132812 -44.515625 18.25 -44.515625 C 17.757812 -44.515625 16.175781 -45 13.5 -45.96875 C 10.820312 -46.945312 8.269531 -47.679688 5.84375 -48.171875 Z M 5.84375 -48.171875 "/></g></g></g></g></g></svg>